<?xml version="1.0" standalone="no"?>
<!DOCTYPE svg PUBLIC "-//W3C//DTD SVG 1.1//EN" "http://www.w3.org/Graphics/SVG/1.1/DTD/svg11.dtd" >
<svg xmlns="http://www.w3.org/2000/svg">
<metadata>
<json>
<![CDATA[
{
	"fontFamily": "fontwso2",
	"majorVersion": 1,
	"minorVersion": 1,
	"licenseURL": "http://wso2.com/licenses",
	"license": "Apache License, Version 2.0",
	"description": "WSO2 Products User Interface Icons Set\nFont generated by IcoMoon.",
	"copyright": "2015",
	"designerURL": "http://wso2.com",
	"fontURL": "http://wso2-dev-ux.github.io/font-wso2/",
	"version": "Version 1.1",
	"fontId": "fontwso2",
	"psName": "fontwso2",
	"subFamily": "Regular",
	"fullName": "fontwso2"
}
]]>
</json>
</metadata>
<defs>
<font id="fontwso2" horiz-adv-x="1024">
<font-face units-per-em="1024" ascent="960" descent="-64" />
<missing-glyph horiz-adv-x="1024" />
<glyph unicode="&#x20;" d="" horiz-adv-x="512" />
<glyph unicode="&#xe600;" d="M512 960c-285.257 0-512-226.743-512-512s226.743-512 512-512 512 226.743 512 512-226.743 512-512 512zM512-12.8c-256 0-460.8 204.8-460.8 460.8s204.8 460.8 460.8 460.8c256 0 460.8-204.8 460.8-460.8s-204.8-460.8-460.8-460.8z" data-tags="ring" />
<glyph unicode="&#xe601;" d="M512 960c109.714 0 204.8-87.771 204.8-219.429 0-14.629 0-29.257 0-43.886 29.257-43.886 29.257-87.771 0-124.343-7.314-7.314-14.629-21.943-21.943-36.571-14.629-43.886-29.257-87.771-51.2-131.657-29.257-58.514-7.314-138.971 58.514-168.229 43.886-21.943 87.771-36.571 131.657-51.2s95.086-43.886 124.343-80.457c14.629-21.943 29.257-51.2 36.571-80.457 0-21.943 7.314-43.886-7.314-65.829-14.629-36.571-65.829-21.943-95.086-21.943s-51.2 0-80.457 0-109.714 0-160.914 0c-43.886 0-95.086 0-138.971 0v0c-43.886 0-95.086 0-138.971 0-51.2 0-109.714 0-160.914 0-29.257 0-51.2 0-80.457 0s-80.457-14.629-95.086 21.943c-14.629 21.943-7.314 43.886-7.314 65.829 7.314 29.257 21.943 58.514 36.571 80.457 29.257 36.571 80.457 65.829 124.343 80.457s87.771 29.257 131.657 51.2c65.829 29.257 87.771 109.714 58.514 168.229-21.943 43.886-36.571 87.771-51.2 131.657-7.314 14.629-14.629 29.257-21.943 36.571-29.257 36.571-29.257 80.457 0 124.343 0 14.629 0 29.257 0 43.886 0 138.971 95.086 226.743 204.8 219.429z" data-tags="user" />
<glyph unicode="&#xe602;" d="M1266.542 372.955v-50.249h73.289v50.249h-73.289zM1266.542 558.811v-50.249h73.289v50.249h-73.289zM571.685 619.008c-22.601 0-41.545-15.506-46.811-36.425h-75.63l-1.463-0.366c-39.57-9.509-61.221-49.883-88.357-76.507-13.678-13.385-29.769-23.552-45.349-34.45-4.462-3.438-13.239-7.461-20.334-10.386h-37.376c-6.802 33.573-36.498 58.88-72.119 58.88-40.594 0-73.582-32.914-73.582-73.582 0-40.594 32.914-73.582 73.582-73.582 35.621 0 65.39 25.307 72.119 58.953h141.97c14.19 0 34.377-12.873 45.641-20.553 22.601-15.287 38.107-37.449 54.638-58.661 17.408-22.382 39.058-48.786 69.632-49.664 5.266-0.146 65.39 1.39 65.39 0.585v-34.743h99.694v99.694h-99.694v-38.619h-70.729c-8.558 6.071-32.037 23.845-43.52 38.839-8.046 10.459-22.528 30.427-39.57 49.152-4.827 5.193-9.874 9.728-15.214 13.897h330.679v-29.403l98.45 44.032-98.45 44.105v-29.477h-443.977c10.825 9.362 21.504 20.48 31.525 31.451 13.239 14.482 25.307 28.745 33.719 37.888 10.679 11.557 20.48 18.286 27.355 22.016 3.438 1.902 6.144 2.999 8.777 4.023h72.777c6.217-19.675 24.503-34.011 46.226-34.011 26.77 0 48.421 21.65 48.421 48.421 0.073 26.843-21.65 48.494-48.421 48.494zM1062.254 630.93h328.338v-374.272h-328.338v374.272zM130.341 718.482h743.57c72.046 0 130.341-58.441 130.341-130.341v-280.21c0-72.046-58.368-130.341-130.341-130.341h-743.57c-72.046 0-130.341 58.368-130.341 130.341v280.21c0 71.973 58.368 130.341 130.341 130.341z" horiz-adv-x="1391" data-tags="usb-drive" />
<glyph unicode="&#xe603;" d="M775.68 398.775l190.025 190.025c77.751 77.751 77.751 204.288-0.073 282.039l-30.866 30.866c-77.751 77.751-204.215 77.751-282.039 0l-189.952-190.025c-42.935-42.862-62.098-100.645-57.637-156.818-56.174 4.462-113.957-14.775-156.818-57.637l-189.952-190.025c-77.751-77.751-77.751-204.288 0-282.039l30.866-30.866c77.751-77.751 204.288-77.751 282.039 0l189.952 190.025c42.862 42.935 62.098 100.645 57.637 156.818 56.174-4.462 113.883 14.775 156.818 57.637zM494.080 251.465l-190.025-190.025c-40.741-40.741-107.008-40.741-147.675 0l-30.866 30.866c-40.741 40.741-40.741 107.008 0 147.749l190.025 190.025c34.523 34.523 87.259 39.79 127.342 15.945l-78.702-78.775c-18.578-18.505-18.578-48.64 0-67.145 18.505-18.505 48.64-18.505 67.145 0l78.775 78.775c23.698-40.155 18.432-92.965-16.018-127.415zM581.193 450.048l78.702 78.775c18.505 18.505 18.505 48.567 0 67.145s-48.567 18.578-67.145 0l-78.702-78.775c-23.918 40.082-18.578 92.891 15.872 127.342l190.025 190.025c40.741 40.741 107.008 40.741 147.749 0l30.866-30.866c40.667-40.741 40.667-107.008 0-147.749l-190.025-190.025c-34.523-34.45-87.259-39.717-127.342-15.872z" data-tags="uri" />
<glyph unicode="&#xe604;" d="M874.057 810.057c-96.11 95.963-223.744 149.138-359.497 149.943h-5.047c-282.405-1.463-510.976-232.375-509.44-514.56 1.39-281.381 230.766-509.44 511.927-509.44 0.951 0 1.829 0 2.56 0 136.777 0.805 265.143 54.711 361.326 151.845 96.183 97.207 148.773 226.085 148.114 362.715-0.805 135.753-54.053 263.387-149.943 359.497zM856.137 755.273c-35.328-23.406-72.338-42.642-110.665-58.075-25.307 59.831-59.685 116.078-102.839 167.205-10.021 11.995-20.48 23.479-31.525 34.743 96.11-21.138 181.321-72.558 245.029-143.872zM537.015 909.312c0.439 0 0.951 0 1.243-0.073l-1.243-1.463v1.536zM537.015 900.315c24.21-20.846 47.031-43.739 67.511-68.096 39.205-46.446 70.729-97.573 93.842-151.845-52.663-16.53-106.935-25.819-161.353-28.014v247.954zM486.985 909.312v-1.609l-1.243 1.609c0.366 0 0.805 0 1.243 0zM486.985 900.315v-247.881c-54.491 2.194-108.763 11.41-161.353 28.014 35.621 83.822 90.258 158.939 161.353 219.867zM412.891 899.291c-57.71-58.734-103.131-127.269-134.437-202.021-38.473 15.579-75.557 34.889-111.031 58.295 63.707 71.022 148.919 122.514 245.467 143.726zM167.497 140.434c34.743 23.040 71.534 42.277 109.202 57.563 25.454-61.367 60.489-119.223 104.667-171.374 8.119-9.801 16.75-19.31 25.454-28.599-93.989 21.943-177.006 72.704-239.323 142.409zM486.985-9.289c-24.21 20.699-47.031 43.52-67.584 67.95-40.229 47.689-72.338 100.425-95.598 156.453 53.102 16.677 108.032 26.112 163.255 28.453-0.073 0-0.073-252.855-0.073-252.855zM537.015-9.289v252.855c55.223-2.267 110.153-11.776 163.255-28.453-35.547-85.723-90.917-162.45-163.255-224.402zM840.411 122.953c-62.171-62.757-139.118-105.472-223.232-125.001 56.027 58.514 99.767 126.245 130.194 200.119 37.815-15.287 74.386-34.67 109.275-57.71-5.193-5.851-10.752-11.776-16.238-17.408zM888.101 179.493c-39.424 26.258-80.75 48.201-123.611 65.536 7.753 24.137 14.117 48.859 19.017 74.094h-51.127c-4.169-19.383-9.070-38.473-15.067-57.198-58.587 18.798-119.296 29.403-180.37 31.451v25.673h-49.957v-25.673c-61.074-2.194-121.783-12.654-180.517-31.525-6.071 18.798-10.825 37.961-14.994 57.271h-51.054c4.901-25.088 11.045-49.957 18.871-74.167-42.715-17.262-83.968-39.058-123.173-65.463-49.737 69.339-80.823 153.015-85.577 243.493h32.841v49.957h-32.914c4.681 90.405 35.84 174.007 85.577 243.493 39.643-26.697 81.481-48.713 124.782-66.121-7.973-23.918-14.555-48.494-19.602-73.509h51.273c4.242 19.163 9.289 38.107 15.36 56.686 58.295-18.432 118.565-28.965 179.054-31.013v-25.746h49.957v25.746c60.489 2.048 120.759 12.507 179.127 31.013 6.144-18.578 10.971-37.595 15.287-56.686h51.127c-5.12 24.869-11.337 49.518-19.383 73.655 43.081 17.189 84.919 39.205 124.343 65.755 49.81-69.413 81.115-152.942 85.797-243.273h-32.841v-49.957h32.841c-4.462-88.43-33.938-172.325-85.065-243.493zM182.272 348.599l-45.495 191.561h46.299l14.482-78.702c4.242-23.040 8.265-47.762 11.337-67.365h0.585c3.145 21.065 7.68 44.032 12.507 67.95l16.165 78.19h46.007l15.36-80.677c4.242-22.455 7.387-42.935 10.24-64.219h0.585c2.853 21.285 7.095 43.739 11.118 66.779l15.653 78.19h44.032l-49.445-191.561h-46.885l-16.165 82.432c-3.657 19.31-6.802 37.23-9.070 59.099h-0.585c-3.438-21.577-6.51-39.79-11.118-59.099l-18.213-82.432h-47.397zM434.615 348.599l-45.495 191.561h46.299l14.482-78.702c4.242-23.040 8.265-47.762 11.337-67.365h0.585c3.145 21.065 7.68 44.032 12.507 67.95l16.165 78.19h46.007l15.36-80.677c4.242-22.455 7.387-42.935 10.24-64.219h0.585c2.853 21.285 7.095 43.739 11.118 66.779l15.653 78.19h44.032l-49.445-191.561h-46.885l-16.165 82.432c-3.657 19.31-6.802 37.23-9.070 59.099h-0.585c-3.438-21.577-6.51-39.79-11.118-59.099l-18.213-82.432h-47.397zM687.031 348.599l-45.495 191.561h46.299l14.482-78.702c4.242-23.040 8.265-47.762 11.337-67.365h0.585c3.145 21.065 7.68 44.032 12.507 67.95l16.165 78.19h46.007l15.36-80.677c4.242-22.455 7.387-42.935 10.24-64.219h0.585c2.853 21.285 7.095 43.739 11.118 66.779l15.579 78.19h44.032l-49.445-191.561h-46.885l-16.165 82.432c-3.657 19.31-6.802 37.23-9.143 59.099h-0.585c-3.438-21.577-6.583-39.79-11.118-59.099l-18.213-82.432h-47.25z" data-tags="website" />
<glyph unicode="&#xe605;" d="M458.679 275.237h108.763v-93.842h-108.763v93.842zM475.721 746.642h74.679l17.042-347.721h-108.837l17.115 347.721zM512 859.721c-228.279 0-411.721-183.442-411.721-411.721s183.442-411.721 411.721-411.721 411.721 183.442 411.721 411.721-183.442 411.721-411.721 411.721zM512 960c281.6 0 512-230.4 512-512s-230.4-512-512-512-512 230.4-512 512 230.4 512 512 512z" data-tags="warning" />
<glyph unicode="&#xe606;" d="M841.143 192c-102.4 95.086-241.371 109.714-358.4 0-7.314-7.314-7.314-7.314 0-21.943l175.543-175.543 175.543 168.229c21.943 21.943 14.629 29.257 7.314 29.257zM1097.143 411.429c-241.371 241.371-636.343 241.371-877.714 0 0-14.629 0-21.943 0-29.257l124.343-124.343c7.314-7.314 21.943-7.314 21.943 0 160.914 160.914 424.229 160.914 585.143 0 7.314-7.314 14.629-7.314 21.943 0l124.343 124.343c14.629 7.314 14.629 21.943 0 29.257v0zM1323.886 623.543v0c-365.714 365.714-958.171 358.4-1316.571 0-7.314-7.314-7.314-14.629 0-21.943l131.657-131.657c7.314-7.314 14.629-7.314 21.943 0 277.943 277.943 738.743 277.943 1016.686 0 7.314-7.314 14.629-7.314 21.943 0l131.657 131.657c-7.314 7.314-7.314 14.629-7.314 21.943z" horiz-adv-x="1324" data-tags="wifi" />
<glyph unicode="&#xe607;" d="M583.753 742.254c-44.251-108.398-88.137-216.942-132.242-325.413-44.105 108.69-88.357 217.307-132.389 325.998-44.617-108.471-88.43-217.307-132.608-325.925-44.325 108.325-88.137 216.869-132.242 325.339-18.066 0.073-36.133 0-54.272 0 62.025-153.893 124.197-307.712 186.441-461.458 44.251 109.056 88.21 218.331 132.608 327.387 43.374-107.813 87.186-215.552 130.706-323.365 0.731-4.242 3.877-0.585 4.096 1.609 61.44 151.991 123.173 303.835 184.686 455.753-18.213 0.073-36.571 0-54.784 0.073zM830.537 514.633c-22.747 15.653-48.128 26.77-73.143 38.107-19.602 10.24-39.205 20.846-57.125 33.865-25.6 19.383-25.381 61.074-4.096 83.602 19.822 21.504 51.566 28.965 79.653 23.113 14.263-2.853 26.77-11.264 36.425-21.943 7.387-7.461 12.069-16.896 19.090-24.503 13.166 8.777 26.624 17.042 39.79 25.673-18.944 34.962-53.102 62.757-93.111 68.608-34.816 4.096-72.265-1.609-101.376-22.309-22.016-15.287-38.766-38.619-44.105-65.17-5.413-26.405-3.365-55.735 11.337-78.848 9.216-14.629 23.771-24.576 37.669-34.231 17.481-11.995 36.279-21.943 55.515-30.647 25.088-11.264 49.298-24.649 72.192-39.863 11.045-7.241 19.968-17.993 23.698-30.793 5.559-18.505 3.365-38.693-3.365-56.613-10.752-26.77-35.694-47.689-64.293-52.736-24.357-4.608-51.639-1.317-71.534 14.482-20.919 16.165-32.11 41.472-38.107 66.56-16.238-4.974-32.549-9.947-48.859-14.848 6.802-29.477 20.041-58.368 42.35-79.36 21.431-20.626 50.469-32.329 79.945-34.597 32.329-3.365 66.414 2.706 93.915 20.699 31.232 20.114 55.296 52.443 61.513 89.454 4.608 27.794 3.145 58.222-11.41 83.017-9.874 16.896-26.697 28.087-42.569 39.278zM1336.905 404.48c23.918 44.983 31.817 97.938 22.894 148.041-12.727 74.898-65.463 141.312-135.314 170.935-34.158 15.214-72.046 20.846-109.275 18.432-65.097-4.389-127.342-38.181-166.693-90.331-32.987-42.789-49.957-97.646-46.811-151.552 2.048-45.275 18.213-89.819 45.422-126.025 25.673-34.597 61.294-61.733 101.522-77.166 41.618-16.165 87.918-19.749 131.584-10.679 66.414 13.531 125.367 58.295 156.672 118.345zM1190.473 336.018c-44.763-15.214-95.305-11.922-137.728 8.704-53.029 25.015-92.014 76.8-101.815 134.51v0c40.741 0 81.408 0 122.149 0 19.237 42.569 38.254 85.285 57.637 127.854 26.551-64 52.59-128.073 79.067-192.073 16.311 29.038 32.475 58.295 48.64 87.406 19.163 0 38.4 0 57.563 0 0.512 5.998 0.293 11.995-0.219 17.92-22.674 0-45.349 0-68.023 0-11.995-21.211-23.698-42.496-35.547-63.781-27.063 65.39-53.687 130.999-80.823 196.389-23.552-51.931-46.519-104.082-70.363-155.941-37.303 0.366-74.679 0-112.055 0.219v0h-0.512c-1.609 34.743 5.12 70.217 21.797 100.864 23.918 45.056 67.511 79.214 117.102 91.429 31.744 8.119 65.536 7.387 96.914-1.975 38.985-11.483 73.874-36.352 97.426-69.486 20.407-28.379 32.256-62.83 34.085-97.719 0.512-5.925 0.731-11.922 0.219-17.92-1.463-34.597-12.873-68.681-32.841-96.987-22.382-32.11-55.296-57.051-92.672-69.413zM1365.723 189.513c31.159 33.646 62.464 67.291 93.55 100.864 19.237 20.992 38.327 42.569 53.541 66.853 18.505 29.842 23.552 67.95 12.288 101.303-11.41 32.037-37.888 59.099-70.729 68.754-24.064 7.022-50.103 6.949-74.24 0.293 1.463-12.654-0.073-25.381-0.951-38.034 30.501 13.458 69.486 8.265 93.038-16.165 18.213-17.115 25.966-43.593 20.992-68.023-5.339-31.159-28.453-54.418-47.982-77.678-53.541-58.441-107.813-116.224-161.499-174.519 84.114-0.073 168.229 0 252.343 0 0 12.069 0 24.21 0 36.352-56.832 0-113.591 0.073-170.35 0z" horiz-adv-x="1525" data-tags="wso2" />
<glyph unicode="&#xe608;" d="M540.16 62.171l-78.336 34.011v0.439l78.336 34.231v22.821l-103.497-47.982v-18.505l103.497-47.835c0 0 0 22.821 0 22.821zM623.616 186.807h-21.723l-46.007-156.014h21.723l46.007 156.014zM739.401 106.35l-103.497 47.323v-22.821l80.018-34.231v-0.439l-80.018-34.231v-22.601l103.497 47.104v19.895zM403.456 453.339c-2.926 10.679-6.144 24.43-8.85 34.816h-0.805c-2.414-10.679-5.339-24.43-8.046-34.816l-10.971-38.327h39.936l-11.264 38.327zM562.103 488.667c-8.85 0-14.994-0.805-18.505-1.609v-118.199c3.511-0.805 9.362-0.805 14.19-0.805 37.23-0.293 61.586 20.114 61.586 63.269 0.073 38.839-21.943 57.344-57.271 57.344zM857.088 593.774h-20.334v147.822l-227.621 218.185h-39.205l-0.219 0.219v-0.146h-459.118c-29.111 0-52.809-23.698-52.809-52.809v-313.271h-20.407c-20.699 0-37.449-16.823-37.449-37.449v-254.976c0-20.699 16.75-37.449 37.449-37.449h20.407v-275.017c0-29.111 23.698-52.809 52.809-52.809h673.353c29.111 0 52.809 23.698 52.809 52.809v275.017h20.334c20.699 0 37.449 16.75 37.449 37.449v254.903c0 20.699-16.75 37.522-37.449 37.522zM88.43 907.045c0 12.215 9.947 22.162 22.162 22.162h459.118v-174.665c0-27.794 22.601-50.395 50.395-50.395h186.002v-110.373h-717.678v313.271zM802.158 372.37v-34.304h-112.567v180.59h40.741v-146.286h71.826zM662.601 432.64c0-34.597-12.581-58.441-29.696-73.143-19.017-15.799-48.274-23.333-83.602-23.333-21.211 0-36.425 1.317-46.373 2.706v177.152c14.994 2.706 34.597 4.023 54.93 4.023 34.523 0 57.051-5.632 74.24-18.725 18.725-13.97 30.501-36.498 30.501-68.681zM369.152 518.729h53.321l56.32-180.59h-43.959l-13.97 46.373h-52.005l-12.581-46.373h-42.35l55.223 180.59zM273.774 338.139h-44.178l-15.287 77.751c-3.511 18.213-6.437 35.109-8.558 55.735h-0.512c-3.218-20.407-6.144-37.522-10.459-55.735l-17.115-77.751h-44.763l-42.862 180.59h43.666l13.678-74.24c4.023-21.723 7.753-44.983 10.679-63.488h0.512c2.926 19.822 7.241 41.545 11.776 64.073l15.287 73.728h43.374l14.482-76.069c4.023-21.138 6.949-40.448 9.655-60.562h0.512c2.706 20.114 6.729 41.253 10.459 62.976l14.702 73.728h41.545l-46.592-180.736zM806.107-11.264c0-12.215-9.947-22.162-22.162-22.162h-673.353c-12.215 0-22.162 9.947-22.162 22.162v275.017h717.678c0 0.073 0-275.017 0-275.017z" horiz-adv-x="895" data-tags="wadl" />
<glyph unicode="&#xe609;" d="M537.893 62.171l-78.336 34.011v0.439l78.336 34.231v22.821l-103.497-47.982v-18.505l103.497-47.835c0 0 0 22.821 0 22.821zM621.349 186.807h-21.723l-46.007-156.014h21.723l46.007 156.014zM737.134 106.35l-103.497 47.323v-22.821l80.018-34.231v-0.439l-80.018-34.231v-22.601l103.497 47.104v19.895zM550.4 488.667c-8.85 0-14.994-0.805-18.505-1.609v-118.199c3.511-0.805 9.362-0.805 14.19-0.805 37.23-0.293 61.659 20.114 61.659 63.269 0.073 38.839-21.943 57.344-57.344 57.344zM854.821 593.774h-20.334v147.822l-227.621 218.185h-39.205l-0.219 0.219v-0.146h-459.118c-29.111 0-52.809-23.698-52.809-52.809v-313.271h-20.407c-20.699 0-37.449-16.823-37.449-37.449v-254.976c0-20.699 16.75-37.449 37.449-37.449h20.407v-275.017c0-29.111 23.698-52.809 52.809-52.809h673.353c29.111 0 52.809 23.698 52.809 52.809v275.017h20.334c20.699 0 37.449 16.75 37.449 37.449v254.903c0 20.699-16.75 37.522-37.449 37.522zM86.162 907.045c0 12.215 9.947 22.162 22.162 22.162h459.118v-174.665c0-27.794 22.601-50.395 50.395-50.395h186.002v-110.373h-717.678v313.271zM790.528 372.37v-34.304h-112.567v180.59h40.741v-146.286h71.826zM650.898 432.64c0-34.597-12.581-58.441-29.696-73.143-19.090-15.799-48.201-23.333-83.602-23.333-21.138 0-36.425 1.317-46.373 2.706v177.152c14.994 2.706 34.523 4.023 54.93 4.023 34.597 0 57.125-5.632 74.24-18.725 18.725-13.97 30.501-36.498 30.501-68.681zM391.534 413.623c-30.062 10.752-49.81 27.355-49.81 53.833 0 30.866 25.966 54.126 68.315 54.126 20.626 0 35.401-4.023 46.080-9.143l-9.143-32.695c-6.949 3.511-20.114 8.558-37.522 8.558-17.701 0-26.258-8.338-26.258-17.408 0-11.557 9.874-16.603 33.499-25.746 31.89-11.776 46.665-28.453 46.665-54.126 0-30.281-23.040-55.954-72.631-55.954-20.626 0-40.96 5.632-51.127 11.264l8.338 33.499c10.752-5.632 27.867-11.264 45.275-11.264 18.725 0 28.672 7.753 28.672 19.822-0.073 11.045-8.631 17.774-30.354 25.234zM327.461 518.729l-46.592-180.663h-44.178l-15.287 77.751c-3.511 18.213-6.437 35.109-8.558 55.735h-0.512c-3.218-20.407-6.144-37.522-10.459-55.735l-17.115-77.751h-44.763l-42.862 180.59h43.666l13.678-74.24c4.023-21.723 7.826-44.983 10.752-63.488h0.512c2.926 19.822 7.241 41.545 11.776 64.073l15.287 73.728h43.374l14.482-76.069c4.023-21.138 6.949-40.448 9.655-60.562h0.512c2.633 20.114 6.729 41.253 10.459 62.976l14.702 73.728c0-0.073 41.472-0.073 41.472-0.073zM803.84-11.264c0-12.215-9.947-22.162-22.162-22.162h-673.353c-12.215 0-22.162 9.947-22.162 22.162v275.017h717.678c0 0.073 0-275.017 0-275.017z" horiz-adv-x="892" data-tags="wsdl" />
<glyph unicode="&#xe60a;" d="M305.079 447.488c-2.487 8.997-5.193 20.48-7.461 29.33h-0.585c-2.048-8.997-4.535-20.48-6.729-29.33l-9.216-32.256h33.573l-9.582 32.256zM857.088 593.774h-20.334v147.822l-227.621 218.185h-39.205l-0.219 0.219v-0.146h-459.118c-29.111 0-52.809-23.698-52.809-52.809v-313.271h-20.407c-20.699 0-37.449-16.823-37.449-37.449v-254.976c0-20.699 16.75-37.449 37.449-37.449h20.407v-275.017c0-29.111 23.698-52.809 52.809-52.809h673.353c29.111 0 52.809 23.698 52.809 52.809v275.017h20.334c20.699 0 37.449 16.75 37.449 37.449v254.903c0 20.699-16.75 37.522-37.449 37.522zM88.43 907.045c0 12.215 9.947 22.162 22.162 22.162h459.118v-174.665c0-27.794 22.601-50.395 50.395-50.395h186.002v-110.373h-717.678v313.271zM802.816 379.465v-28.818h-94.647v151.918h34.231v-123.026c0-0.073 60.416-0.073 60.416-0.073zM681.545 350.647h-33.353l-2.487 58.149c-0.658 18.213-1.317 40.082-1.317 62.391h-0.439c-4.974-19.383-11.264-41.033-17.115-58.807l-18.432-59.246h-26.843l-16.238 58.587c-4.974 18.066-9.947 39.424-13.751 59.465h-0.439c-0.658-20.48-1.609-43.959-2.487-62.903l-2.926-57.71h-31.744l9.655 151.918h45.787l14.848-50.907c4.974-17.335 9.435-36.279 12.873-54.053h0.878c4.023 17.554 9.289 37.376 14.409 54.565l16.018 50.469h45.056l8.046-151.918zM460.654 376.686c10.606 0 21.87 2.048 28.818 4.974l4.974-27.063c-6.071-2.926-20.48-6.583-38.766-6.583-52.517 0-79.506 32.914-79.506 76.434 0 51.785 36.937 80.457 82.944 80.457 17.774 0 31.305-3.584 37.376-6.729l-7.241-27.063c-6.729 2.926-16.457 5.632-28.818 5.632-27.063 0-48.201-16.457-48.201-50.469 0-30.427 17.993-49.591 48.421-49.591zM368.421 350.574h-36.937l-11.703 38.985h-43.739l-10.606-38.985h-35.621l46.446 151.918h44.837l47.323-151.918zM91.429 502.491h39.424l13.312-27.721c4.535-9.216 7.899-16.677 11.483-25.234h0.439c3.584 9.655 6.51 16.457 10.386 25.234l12.873 27.721h39.205l-42.789-74.167 45.056-77.751h-39.643l-13.751 27.502c-5.632 10.606-9.216 18.505-13.531 27.282h-0.439c-3.145-8.777-6.949-16.677-11.922-27.282l-12.361-27.502h-39.205l43.959 76.873-42.496 75.045zM806.107-11.264c0-12.215-9.947-22.162-22.162-22.162h-673.353c-12.215 0-22.162 9.947-22.162 22.162v275.017h717.678c0 0.073 0-275.017 0-275.017zM540.16 62.171l-78.336 34.011v0.439l78.336 34.231v22.821l-103.497-47.982v-18.505l103.497-47.835c0 0 0 22.821 0 22.821zM623.616 186.807h-21.723l-46.007-156.014h21.723l46.007 156.014zM739.401 106.35l-103.497 47.323v-22.821l80.018-34.231v-0.439l-80.018-34.231v-22.601l103.497 47.104v19.895z" horiz-adv-x="895" data-tags="xacml" />
<glyph unicode="&#xe60b;" d="M540.16 62.171l-78.336 34.011v0.439l78.336 34.231v22.821l-103.497-47.982v-18.505l103.497-47.835c0 0 0 22.821 0 22.821zM623.616 186.807h-21.723l-46.007-156.014h21.723l46.007 156.014zM739.401 106.35l-103.497 47.323v-22.821l80.018-34.231v-0.439l-80.018-34.231v-22.601l103.497 47.104v19.895zM857.088 593.774h-20.334v147.822l-227.621 218.185h-39.205l-0.219 0.219v-0.146h-459.118c-29.111 0-52.809-23.698-52.809-52.809v-313.271h-20.407c-20.699 0-37.449-16.823-37.449-37.449v-254.976c0-20.699 16.75-37.449 37.449-37.449h20.407v-275.017c0-29.111 23.698-52.809 52.809-52.809h673.353c29.111 0 52.809 23.698 52.809 52.809v275.017h20.334c20.699 0 37.449 16.75 37.449 37.449v254.903c0 20.699-16.75 37.522-37.449 37.522zM88.43 907.045c0 12.215 9.947 22.162 22.162 22.162h459.118v-174.665c0-27.794 22.601-50.395 50.395-50.395h186.002v-110.373h-717.678v313.271zM685.861 432.64c0-34.597-12.581-58.441-29.696-73.143-19.090-15.799-48.274-23.333-83.602-23.333-21.138 0-36.425 1.317-46.373 2.706v177.152c14.994 2.706 34.597 4.023 54.93 4.023 34.597 0 57.051-5.632 74.24-18.725 18.725-13.97 30.501-36.498 30.501-68.681zM426.496 413.623c-30.062 10.752-49.883 27.355-49.883 53.833 0 30.866 25.966 54.126 68.315 54.126 20.626 0 35.328-4.023 46.080-9.143l-9.143-32.695c-6.949 3.511-20.114 8.558-37.522 8.558-17.701 0-26.258-8.338-26.258-17.408 0-11.557 9.947-16.603 33.499-25.746 31.89-11.776 46.665-28.453 46.665-54.126 0-30.281-23.040-55.954-72.631-55.954-20.626 0-41.033 5.632-51.2 11.264l8.338 33.499c10.679-5.632 27.867-11.264 45.275-11.264 18.725 0 28.672 7.753 28.672 19.822 0.073 11.045-8.485 17.774-30.208 25.234zM205.678 518.729h46.885l15.799-32.987c5.339-10.971 9.362-19.822 13.678-29.989h0.512c4.315 11.557 7.753 19.602 12.288 29.989l15.287 32.987h46.665l-50.907-88.137 53.614-92.453h-47.104l-16.384 32.695c-6.656 12.581-10.971 21.943-16.091 32.402h-0.512c-3.73-10.459-8.338-19.822-14.19-32.402l-14.702-32.695h-46.665l52.224 91.355-50.395 89.234zM806.107-11.264c0-12.215-9.947-22.162-22.162-22.162h-673.353c-12.215 0-22.162 9.947-22.162 22.162v275.017h717.678c0 0.073 0-275.017 0-275.017zM585.435 488.667c-8.85 0-14.994-0.805-18.505-1.609v-118.199c3.511-0.805 9.362-0.805 14.19-0.805 37.23-0.293 61.659 20.114 61.659 63.269-0.073 38.839-22.016 57.344-57.344 57.344z" horiz-adv-x="895" data-tags="xsd" />
<glyph unicode="&#xe60c;" d="M540.16 62.171l-78.336 34.011v0.439l78.336 34.231v22.821l-103.497-47.982v-18.505l103.497-47.835c0 0 0 22.821 0 22.821zM623.616 186.807h-21.723l-46.007-156.014h21.723l46.007 156.014zM739.401 106.35l-103.497 47.323v-22.821l80.018-34.231v-0.439l-80.018-34.231v-22.601l103.497 47.104v19.895zM520.997 489.253c-13.312-0.146-23.552-6.071-30.866-17.701-7.314-11.41-10.971-25.893-10.971-43.447s3.73-31.817 11.191-42.862c7.095-11.63 17.262-17.481 30.354-17.701h0.293c13.458 0.146 23.771 6.071 30.866 17.701 7.022 11.045 10.533 25.6 10.533 43.666 0 17.042-3.511 31.232-10.533 42.642-7.095 11.63-17.408 17.481-30.866 17.701zM857.088 593.774h-20.334v147.822l-227.621 218.185h-39.205l-0.219 0.219v-0.146h-459.118c-29.111 0-52.809-23.698-52.809-52.809v-313.271h-20.407c-20.699 0-37.449-16.823-37.449-37.449v-254.976c0-20.699 16.75-37.449 37.449-37.449h20.407v-275.017c0-29.111 23.698-52.809 52.809-52.809h673.353c29.111 0 52.809 23.698 52.809 52.809v275.017h20.334c20.699 0 37.449 16.75 37.449 37.449v254.903c0 20.699-16.75 37.522-37.449 37.522zM88.43 907.045c0 12.215 9.947 22.162 22.162 22.162h459.118v-174.665c0-27.794 22.601-50.395 50.395-50.395h186.002v-110.373h-717.678v313.271zM606.354 338.651l-11.557-31.671c-23.918 7.314-47.177 15.872-69.778 25.527-4.023 1.536-7.973 2.414-11.995 2.633-20.626 1.463-38.327 9.801-53.321 25.015-15.506 14.994-23.406 37.23-23.698 66.706 0.146 27.794 7.973 50.469 23.552 68.023 15.141 17.554 36.059 26.478 62.757 26.77 27.136-0.366 47.835-9.362 62.098-27.063 13.97-17.335 21.065-38.693 21.211-64-0.146-20.626-4.315-37.742-12.434-51.566-8.046-13.897-18.066-23.625-30.208-29.184v-1.097c14.19-3.877 28.672-7.241 43.374-10.094zM280.869 518.656h45.349l15.287-32.987c5.047-10.313 9.509-20.261 13.312-29.915h0.512c3.803 10.533 7.753 20.48 11.922 29.915l14.775 32.987h45.056l-50.907-88.064 53.541-92.526h-45.641l-15.872 32.695c-5.851 11.922-11.045 22.747-15.579 32.475h-0.512c-3.438-9.655-8.046-20.48-13.678-32.475l-14.336-32.695h-45.056l50.542 91.355-48.713 89.234zM806.107-11.264c0-12.215-9.947-22.162-22.162-22.162h-673.353c-12.215 0-22.162 9.947-22.162 22.162v275.017h717.678c0 0.073 0-275.017 0-275.017z" horiz-adv-x="895" data-tags="xq" />
<glyph unicode="&#xe60d;" d="M540.16 62.245l-78.336 34.011v0.439l78.336 34.231v22.821l-103.497-47.982v-18.505l103.497-47.835c0 0 0 22.821 0 22.821zM623.616 186.807h-21.723l-46.007-156.014h21.723l46.007 156.014zM739.401 106.35l-103.497 47.323v-22.821l80.018-34.231v-0.439l-80.018-34.231v-22.601l103.497 47.104v19.895zM857.088 593.774h-20.334v147.822l-227.621 218.258h-39.205l-0.219 0.146v-0.146h-459.118c-29.111 0-52.809-23.698-52.809-52.809v-313.271h-20.407c-20.699 0-37.449-16.823-37.449-37.449v-254.976c0-20.699 16.75-37.449 37.449-37.449h20.407v-275.017c0-29.111 23.698-52.809 52.809-52.809h673.353c29.111 0 52.809 23.698 52.809 52.809v275.017h20.334c20.699 0 37.449 16.75 37.449 37.449v254.903c0 20.773-16.75 37.522-37.449 37.522zM88.43 907.045c0 12.215 9.947 22.162 22.162 22.162h459.118v-174.665c0-27.794 22.601-50.395 50.395-50.395h186.002v-110.373h-717.678v313.271zM586.533 484.425v34.304h134.656v-34.304h-47.909v-146.286h-39.497v146.286c-0.073 0-47.25 0-47.25 0zM600.357 372.443v-34.231h-108.983v180.517h39.497v-146.286h69.486zM414.866 402.725c-4.608 3.73-12.434 7.387-23.259 10.898-15.141 5.413-27.136 12.434-35.84 21.211-9.362 8.85-13.97 19.749-13.97 32.695 0.146 15.872 6.29 28.818 18.432 38.839 11.849 10.021 28.306 15.141 49.298 15.287 20.261-0.366 35.547-3.365 45.787-9.143l-9.216-32.695c-3.438 1.975-8.265 3.95-14.482 5.925-3.218 0.951-6.729 1.682-10.533 2.194-3.803 0.366-8.046 0.512-12.727 0.512-8.777 0-15.287-1.682-19.602-5.12-4.462-3.438-6.729-7.534-6.729-12.288 0-5.413 2.633-9.874 7.973-13.458 5.413-3.73 13.97-7.826 25.6-12.288 31.305-11.045 46.811-29.111 46.665-54.199 0-15.36-5.778-28.453-17.262-39.131-11.849-11.045-30.062-16.603-54.638-16.896-22.089 0.585-38.985 4.389-50.615 11.191l7.973 33.499c11.922-7.095 27.063-10.825 45.422-11.264 19.090 0.293 28.672 6.875 28.891 19.895-0.146 5.632-2.487 10.313-7.168 14.336zM171.008 518.656h45.349l15.287-32.987c5.047-10.313 9.509-20.261 13.312-29.915h0.512c3.803 10.533 7.753 20.48 11.922 29.915l14.775 32.987h45.056l-50.907-88.064 53.541-92.526h-45.714l-15.799 32.695c-5.851 11.922-11.045 22.747-15.579 32.402h-0.512c-3.438-9.655-8.046-20.48-13.678-32.402l-14.336-32.695h-45.056l50.542 91.355-48.713 89.234zM806.107-11.191c0-12.215-9.947-22.162-22.162-22.162h-673.353c-12.215 0-22.162 9.947-22.162 22.162v275.017h717.678c0 0 0-275.017 0-275.017z" horiz-adv-x="895" data-tags="xslt" />
<glyph unicode="&#xe60e;" d="M768 192h256v-256h-256v256zM384 192h256v-256h-256v256zM0 192h256v-256h-256v256zM768 576h256v-256h-256v256zM384 576h256v-256h-256v256zM0 576h256v-256h-256v256zM768 960h256v-256h-256v256zM384 960h256v-256h-256v256zM0 960h256v-256h-256v256z" data-tags="tiles" />
<glyph unicode="&#xe60f;" d="M0 192h1024v-170.642h-1024v170.642zM0 533.358h1024v-170.642h-1024v170.642zM0 874.642h1024v-170.642h-1024v170.642z" data-tags="menu" />
<glyph unicode="&#xe610;" d="M124.343 755.2h-109.714c-7.314 0-14.629 7.314-14.629 14.629v109.714c0 7.314 7.314 14.629 14.629 14.629h109.714c7.314 0 14.629-7.314 14.629-14.629v-109.714c0-7.314-7.314-14.629-14.629-14.629zM1024 769.829v109.714c0 7.314-7.314 14.629-14.629 14.629h-768c-14.629 0-21.943-7.314-21.943-14.629v-109.714c0-7.314 7.314-14.629 14.629-14.629h768c14.629 0 21.943 7.314 21.943 14.629zM1024 426.057v102.4c0 7.314-7.314 14.629-14.629 14.629h-768c-14.629 0-21.943-7.314-21.943-14.629v-109.714c0-7.314 7.314-14.629 14.629-14.629h768c14.629 7.314 21.943 14.629 21.943 21.943zM1024 74.971v109.714c0 7.314-7.314 14.629-14.629 14.629h-768c-7.314 0-14.629-7.314-14.629-14.629v-109.714c0-7.314 7.314-14.629 14.629-14.629h768c7.314 0 14.629 7.314 14.629 14.629zM138.971 426.057v102.4c0 7.314-7.314 14.629-14.629 14.629h-109.714c-7.314 0-14.629-7.314-14.629-14.629v-109.714c0-7.314 7.314-14.629 14.629-14.629h109.714c7.314 7.314 14.629 14.629 14.629 21.943zM138.971 74.971v109.714c0 7.314-7.314 14.629-14.629 14.629h-109.714c-7.314 0-14.629-7.314-14.629-14.629v-109.714c0-7.314 7.314-14.629 14.629-14.629h109.714c7.314 0 14.629 7.314 14.629 14.629z" data-tags="list" />
<glyph unicode="&#xe611;" d="M0 361.326h421.669v-404.919h-421.669v404.919zM0 939.52h421.669v-404.919h-421.669v404.919zM602.331 361.326h421.669v-404.919h-421.669v404.919zM602.331 939.52h421.669v-404.919h-421.669v404.919z" data-tags="grid" />
<glyph unicode="&#xe612;" d="M0 769.829c0 0 0 0 0 0 0 14.629 7.314 29.257 14.629 36.571 7.314 0 14.629 7.314 21.943 7.314s14.629-7.314 21.943-14.629 29.257-21.943 43.886-36.571c21.943 21.943 43.886 51.2 65.829 80.457 7.314 7.314 14.629 21.943 29.257 21.943 7.314 7.314 21.943 7.314 36.571 7.314s21.943-14.629 21.943-21.943c0-14.629-7.314-21.943-14.629-29.257-36.571-43.886-73.143-80.457-102.4-117.029-7.314-7.314-21.943-21.943-36.571-21.943s-29.257 14.629-36.571 29.257c-21.943 14.629-36.571 29.257-58.514 51.2 0 0-7.314 7.314-7.314 7.314zM29.257 426.057c14.629-14.629 29.257-21.943 36.571-36.571 21.943-21.943 43.886-21.943 58.514 0 29.257 36.571 65.829 73.143 102.4 109.714 29.257 21.943 43.886 43.886 21.943 58.514-14.629 21.943-36.571 7.314-51.2-7.314-29.257-36.571-65.829-65.829-87.771-95.086-14.629 14.629-36.571 29.257-58.514 43.886 0 7.314-7.314 7.314-21.943 7.314-14.629-7.314-14.629-14.629-21.943-21.943-14.629-7.314-7.314-29.257 7.314-36.571 0-7.314 7.314-14.629 14.629-21.943zM972.8 857.6h-541.257c-29.257 0-58.514-21.943-58.514-58.514v-14.629c7.314-21.943 29.257-43.886 58.514-43.886h533.943c36.571 0 58.514 14.629 58.514 43.886v21.943c7.314 29.257-21.943 51.2-51.2 51.2zM972.8 535.771h-541.257c-29.257 0-58.514-21.943-58.514-58.514v-14.629c0-29.257 21.943-58.514 58.514-58.514h533.943c29.257 0 58.514 21.943 58.514 51.2v21.943c7.314 36.571-21.943 58.514-51.2 58.514zM972.8 213.943h-541.257c-29.257 0-58.514-21.943-58.514-58.514v-21.943c0-29.257 21.943-58.514 58.514-58.514h533.943c29.257 0 58.514 21.943 58.514 58.514v21.943c7.314 36.571-21.943 58.514-51.2 58.514zM270.629 155.429c0-73.143-58.514-131.657-131.657-131.657s-138.971 58.514-138.971 131.657 58.514 131.657 131.657 131.657 138.971-58.514 138.971-131.657zM204.8 155.429c0 43.886-29.257 73.143-73.143 73.143s-73.143-29.257-73.143-73.143 29.257-73.143 73.143-73.143c43.886-7.314 73.143 29.257 73.143 73.143z" data-tags="checklist" />
<glyph unicode="&#xe613;" d="M263.314 718.629c80.457 0 131.657-43.886 197.486-43.886s102.4 43.886 197.486 43.886c73.143 0 146.286-36.571 197.486-102.4-175.543-95.086-146.286-343.771 29.257-409.6-21.943-51.2-36.571-80.457-65.829-124.343-43.886-65.829-102.4-146.286-182.857-146.286-65.829 0-87.771 43.886-175.543 43.886-95.086 0-109.714-43.886-182.857-43.886s-131.657 73.143-175.543 138.971c-117.029 182.857-131.657 402.286-58.514 519.314 51.2 80.457 138.971 124.343 219.429 124.343zM629.029 960c14.629-65.829-14.629-124.343-43.886-168.229-36.571-43.886-102.4-80.457-160.914-80.457-7.314 58.514 14.629 124.343 51.2 160.914 36.571 51.2 102.4 80.457 153.6 87.771z" horiz-adv-x="878" data-tags="apple" />
<glyph unicode="&#xe614;" d="M543.744 517.047v-486.693h118.345v486.693h-118.345zM237.568 517.047v-486.693h118.345v486.693h-118.345zM64.585 601.088h770.487v-665.088h-770.487v665.088zM255.634 960h387.584v-123.465h255.561v-132.462h-898.779v132.462h255.634v123.465z" horiz-adv-x="899" data-tags="delete" />
<glyph unicode="&#xe615;" d="M270.629 455.314c0-80.457-58.514-131.657-138.971-131.657s-131.657 51.2-131.657 131.657 58.514 131.657 131.657 131.657 138.971-58.514 138.971-131.657zM519.314 586.971c-80.457 0-138.971-58.514-138.971-131.657s58.514-131.657 138.971-131.657 124.343 51.2 124.343 131.657-58.514 131.657-124.343 131.657zM892.343 586.971c-80.457 0-131.657-51.2-131.657-131.657s51.2-131.657 131.657-131.657 131.657 51.2 131.657 131.657-58.514 131.657-131.657 131.657z" data-tags="dots" />
<glyph unicode="&#xe616;" d="M100.279 960h823.442c55.442 0 100.279-42.642 100.279-96.037v-541.842c0-51.2-44.837-93.842-100.279-93.842h-232.521l-452.242-292.279 104.521 290.158h-243.2c-55.442 0-100.279 44.763-100.279 93.842v541.842c0 55.515 44.837 98.158 100.279 98.158z" data-tags="message" />
<glyph unicode="&#xe617;" d="M972.8 221.257v0 0c0 0 0 0 0 0zM533.943 960v0l65.829-131.657-65.829-117.029c138.971-7.314 241.371-124.343 241.371-263.314 0-36.571-7.314-73.143-21.943-102.4v0l73.143-124.343h146.286c29.257 65.829 51.2 146.286 51.2 226.743 0 277.943-219.429 497.371-490.057 512zM533.943 711.314v0 0 0zM270.629 338.286v0c-14.629 36.571-21.943 73.143-21.943 109.714 0 131.657 95.086 241.371 219.429 263.314v0l73.143 131.657-65.829 117.029c-263.314-14.629-475.429-241.371-475.429-512 0-80.457 21.943-160.914 51.2-226.743 0 0 0 0 0 0l80.457 117.029h138.971zM51.2 221.257v0c0 0 0 0 0 0v0zM80.457 170.057v0c0 0 0 0 0 0v0zM797.257 177.371l-73.143 117.029c-43.886-65.829-124.343-109.714-212.114-109.714s-160.914 43.886-212.114 102.4v0h-146.286l-73.143-117.029c95.086-138.971 248.686-234.057 431.543-234.057s336.457 95.086 431.543 234.057v0l-146.286 7.314z" data-tags="lifecycle" />
<glyph unicode="&#xe618;" d="M530.578 464.53v495.47l417.719-147.31c5.925-2.048 9.874-7.607 9.874-13.897 0-105.106-20.187-221.257-54.93-334.263h-372.663zM493.422 464.53v495.47l-417.719-147.31c-5.925-2.048-9.874-7.607-9.874-13.897 0-105.179 20.187-221.257 54.93-334.263h372.663zM530.578 427.447v-491.447c159.159 87.552 259.584 250.88 315.831 374.565 17.189 37.815 31.89 77.166 45.349 116.955h-361.179zM132.315 427.447c13.458-39.717 28.16-79.141 45.349-116.955 56.174-123.611 156.599-286.866 315.758-374.491v491.447h-361.106z" data-tags="scep" />
<glyph unicode="&#xe619;" d="M247.881 571.904h330.459l247.881-247.881h-578.341v247.881zM165.23 654.555v-413.111h908.873v413.111h-908.873zM0 819.785h1239.333v-247.881h82.651v-330.533h-82.651v-165.23h-1239.333v743.643z" horiz-adv-x="1322" data-tags="battery" />
<glyph unicode="&#xe61a;" d="M773.339 816.494v97.792h-454.949v-97.792h-318.464v-834.779h1091.803v834.779h-318.391zM545.865 115.931c-156.965 0-282.039 127.342-282.039 282.039 0 156.965 127.342 282.039 282.039 282.039s282.039-125.074 282.039-282.039-127.342-282.039-282.039-282.039zM736.914 400.238c0-104.594-86.455-191.049-191.049-191.049-106.935 0-191.049 86.455-191.049 191.049s84.114 191.049 191.049 191.049 191.049-86.455 191.049-191.049z" horiz-adv-x="1092" data-tags="camera" />
<glyph unicode="&#xe61b;" d="M885.029 799.086l43.886-789.943c0-43.886-21.943-73.143-65.829-73.143-263.314 0-533.943 0-797.257 0-43.886 0-65.829 29.257-65.829 73.143 7.314 80.457 7.314 160.914 14.629 248.686 7.314 80.457 7.314 160.914 14.629 241.371 7.314 95.086 14.629 204.8 21.943 307.2l65.829 51.2-43.886 102.4h804.571l-36.571-102.4 43.886-58.514zM614.4 506.514c0 0 0 0 0 0 0-43.886 0-87.771-7.314-131.657-7.314-65.829-65.829-117.029-124.343-117.029-65.829 0-131.657 58.514-131.657 131.657-7.314 73.143 0 153.6 0 226.743 0 7.314 7.314 14.629 7.314 14.629 21.943 29.257 21.943 65.829 0 87.771-29.257 21.943-65.829 21.943-87.771 0s-21.943-58.514 0-87.771c7.314-7.314 7.314-14.629 7.314-21.943 0-58.514 0-124.343 0-182.857 0-29.257 7.314-58.514 14.629-87.771 36.571-117.029 138.971-175.543 241.371-146.286 87.771 29.257 146.286 117.029 153.6 219.429 0 65.829 0 131.657 0 190.171 0 14.629 0 21.943 7.314 29.257 21.943 21.943 14.629 58.514-7.314 80.457-21.943 29.257-51.2 29.257-73.143 7.314-21.943-14.629-29.257-51.2-14.629-73.143s14.629-36.571 14.629-58.514c0-29.257 0-51.2 0-80.457zM124.343 821.029c234.057 0 460.8 0 694.857 0-14.629 14.629-29.257 21.943-43.886 29.257 7.314 14.629 14.629 29.257 21.943 43.886-212.114 0-438.857 0-650.971 0l29.257-43.886-51.2-29.257z" horiz-adv-x="929" data-tags="store" />
<glyph unicode="&#xe61c;" d="M189.221 209.408c-57.563-0.073-104.155-36.206-104.155-80.823s46.665-80.823 104.229-80.823c3.584 0 7.095 0.585 10.606 0.805v-0.731l6.29 1.317c6.363 0.805 12.581 2.121 18.505 3.73l370.249 75.703-370.834 75.849c-5.778 1.609-11.63 2.853-17.774 3.657l-6.437 1.39v-0.878c-3.511 0.293-7.022 0.805-10.679 0.805zM381.806 678.766c60.928 0 110.373-49.371 110.373-110.373s-49.445-110.373-110.373-110.373-110.373 49.371-110.373 110.373c0 61.074 49.445 110.373 110.373 110.373zM381.806 844.361c-152.357 0-275.968-123.538-275.968-275.968s123.538-275.968 275.968-275.968c152.357 0 275.968 123.538 275.968 275.968s-123.611 275.968-275.968 275.968zM0 960h763.611v-1024h-763.611v1024z" horiz-adv-x="764" data-tags="hdd" />
<glyph unicode="&#xe61d;" d="M46.153 209.701c129.829 0 257.463-81.408 305.883-116.59l-13.166-158.427-338.871 140.8 35.182 136.411c2.194-2.194 6.583-2.194 10.971-2.194zM723.895 240.494c193.609-147.456 301.422-160.622 310.272-162.816l19.822-127.634-323.438 105.618v10.971l-6.656 173.861zM664.503 249.271l8.777-184.832v-10.971l-279.479-118.784 13.166 158.427 257.536 156.16zM536.869 357.083v-118.784l-121.051-77.019 13.166 154.039 107.886 41.765zM985.746 381.294l37.376-235.447c-44.032 2.194-123.246 48.421-193.609 94.647 46.226 136.411 154.039 140.8 156.233 140.8zM277.211 581.559l114.395-41.838v-6.583l-13.166-142.994c-162.816 81.408-107.813 182.565-101.23 191.415zM145.189 629.979l74.825-26.405c-68.242-147.456 87.991-248.686 154.039-281.673l-15.433-165.010c-255.269 160.622-305.81 114.395-305.81 114.395l-6.583-19.822 98.962 378.514zM649.070 632.174l13.166-314.661-65.975-41.838-2.194 132.023c-4.389 28.599-39.643 24.21-39.643 24.21l-120.978-46.226 13.166 142.994 2.194 13.166 200.265 90.331zM706.267 634.368l55.003-17.627 32.987-121.051 17.627-65.975 41.838 55.003 59.392 81.408 48.421-15.433 15.433-105.618c-151.845-19.822-202.459-165.010-202.459-165.010l6.583-4.389c-24.21 17.627-44.032 30.793-59.392 44.032l-15.433 314.661zM884.517 887.369c-32.987 0-63.781-24.21-70.437-59.392-6.583-39.57 17.627-77.019 57.198-83.602s77.019 17.627 83.602 57.198-17.627 77.019-57.198 83.602c-4.389 2.194-8.777 2.194-13.166 2.194zM886.711 960c8.777 0 15.433 0 24.21-2.194 74.825-13.166 125.44-87.991 112.201-162.816-4.389-26.405-17.627-50.615-35.182-68.242l-79.214-110.007-81.408-112.201-35.182 134.217-35.182 132.023c-8.777 24.21-10.971 50.615-6.583 77.019 10.898 65.975 70.363 112.201 136.338 112.201z" horiz-adv-x="1054" data-tags="map-location" />
<glyph unicode="&#xe61e;" d="M0 348.745l474.99-219.355v104.667l-359.424 156.233v1.902l359.424 157.038v104.741l-474.99-220.306c0 0 0-84.919 0-84.919zM547.182 90.039h99.767l211.237 715.995h-99.694l-211.31-715.995zM914.651 653.97v-104.741l367.47-157.038v-1.902l-367.47-157.111v-103.79l474.99 216.283v90.99l-474.99 217.307z" horiz-adv-x="1390" data-tags="xml" />
<glyph unicode="&#xe61f;" d="M470.821 960c3.95 0 7.899 0 11.849-0.073 126.245-2.048 253.513-39.936 351.89-113.225 196.901-146.725 203.776-379.392 15.287-519.826-179.566-133.778-471.771-135.241-669.184-7.973 171.813-107.374 428.251-101.083 589.897 19.383 170.715 127.195 170.715 333.458 0 460.8-170.715 127.195-447.781 127.195-618.496 0-143.433-107.081-165.961-269.605-68.315-394.24 20.626 27.063 41.911 51.2 63.342 72.485-40.302 83.383-17.993 178.322 68.974 243.054 121.783 90.697 323.657 87.552 450.779-7.387 127.342-94.793 131.877-245.248 9.874-335.945-121.783-90.697-323.657-87.552-450.999 7.387 110.373-82.213 289.499-82.213 399.872 0s110.373 215.552 0 297.765-289.499 82.213-399.872 0c-72.777-54.199-97.28-130.853-73.874-200.338 173.495 168.009 360.375 157.257 360.375 157.257 128.658-25.6 114.688-111.689 114.688-111.689l-161.938-101.083c-41.253-0.658-104.375 44.325-104.375 44.325-59.685-14.263-103.497-46.738-136.119-85.138-17.847-21.138-32.183-44.032-43.813-66.706-37.376-73.435-44.91-144.603-44.91-144.603 35.621-43.52 117.906-59.977 117.906-59.977l-11.63-157.038c-44.471-20.187-80.969-23.479-108.91-19.968-45.349 5.778-68.681 29.257-68.681 29.257-150.528 209.481 9.874 425.765 9.874 425.765 2.633 3.511 5.413 7.095 7.973 10.606-124.782 144.018-108.032 333.897 54.784 455.022 91.209 68.023 211.529 101.888 333.751 102.107z" horiz-adv-x="987" data-tags="dial-up" />
<glyph unicode="&#xe620;" d="M710.583 376.101c13.166 0 26.405-5.266 36.937-15.799l129.317-129.317c21.138-21.138 21.138-52.809 0-71.241l-52.809-50.176-203.191 203.191 50.176 52.809c13.166 5.266 26.331 10.533 39.57 10.533zM905.874 597.797c47.47 0 84.48-36.937 84.48-84.48s-36.937-84.48-84.48-84.48c-47.47 0-84.48 36.937-84.48 84.48s36.937 84.48 84.48 84.48zM79.872 800.987l203.191-203.191c-71.241-71.241-39.57-147.749 29.038-213.723l71.241-71.241c65.975-65.975 142.482-100.279 213.723-29.038l203.191-203.191-7.899-7.899c-126.683-126.683-319.342-71.241-472.357 84.48l-166.254 166.181c-153.088 153.088-211.090 345.673-84.48 472.357l10.606 5.266zM1127.497 869.595c76.507 0 139.849-63.342 139.849-139.849s-63.269-139.849-139.849-139.849-139.849 63.342-139.849 139.849c0 76.507 63.342 139.849 139.849 139.849zM190.683 893.367c13.166 0 26.405-5.266 36.937-15.799l129.317-129.317c21.138-21.138 21.138-52.809 0-71.241l-50.103-50.176-203.191 203.191 52.809 50.176c7.826 7.899 21.065 13.166 34.231 13.166z" horiz-adv-x="1267" data-tags="incoming-call" />
<glyph unicode="&#xe621;" d="M490.642 742.4h42.642v-245.321l4.315-2.121c10.679-6.437 19.163-14.921 23.479-25.6v-2.121h174.958v-42.642h-177.079l-2.121-2.194c-8.558-17.042-27.794-27.721-46.958-27.721-29.842 0-53.321 23.479-53.321 53.321 0 23.479 12.8 42.642 34.158 49.079h2.121v245.321h-2.194zM512 896c-247.442 0-448-200.558-448-448s200.558-448 448-448 448 200.558 448 448-200.558 448-448 448zM512 960c283.721 0 512-228.279 512-512s-228.279-512-512-512-512 228.279-512 512 228.279 512 512 512z" data-tags="clock" />
<glyph unicode="&#xe622;" d="M667.794 597.65l-253.44-275.675c0 0 175.616-266.752 197.851-322.341l71.168 42.203c0 0-51.127 97.792-80.018 122.295 0 0-26.697 37.815 20.041 24.43 0 0 106.715-88.942 122.295-97.792l71.168 64.439c0 0-8.923 22.235-24.43 40.009l-84.626 95.671c0 0-15.579 31.159 17.774 20.041 0 0 88.942-71.168 148.919-91.136l55.589 75.557c0 0-104.448 100.059-111.177 117.833 0 0-17.774 15.579 8.923 20.041 0 0 106.715-73.362 144.53-68.901 0 0 33.353 62.245 31.159 66.706 0-2.341-286.793 133.266-335.726 166.619zM658.944 677.669c97.792-86.674 360.155-188.928 360.155-188.928 73.362-17.774 42.203-77.824 42.203-77.824-126.683-300.105-426.862-464.603-426.862-464.603-53.321-37.815-77.824 42.203-77.824 42.203-62.245 122.295-215.625 335.653-215.625 335.653l317.952 353.499zM63.122 960c4.462 0 8.923-2.194 13.312-4.462l291.255-264.558c2.194-2.194 4.462-6.656 4.462-8.923l64.439 71.168c53.321 31.159 100.059 4.462 100.059 4.462l75.557-55.589-308.955-335.653-53.394 73.362c-33.353 68.901 4.462 113.371 4.462 113.371l53.321 60.050c-4.462 0-6.656 2.194-11.118 4.462l-291.255 264.558c-6.656 6.656-6.656 17.774-2.194 24.43l44.471 48.933c6.656 2.194 11.118 4.389 15.579 4.389z" horiz-adv-x="1068" data-tags="clean" />
<glyph unicode="&#xe623;" d="M636.343 399.506c2.487-4.462 2.267-9.874-0.585-14.263l-287.013-442.88c-2.56-3.877-6.729-6.217-11.337-6.363-0.073 0-0.219 0-0.439 0-4.389 0-8.631 2.121-11.264 5.705l-323.072 442.88c-3.072 4.169-3.511 9.874-1.17 14.555s7.168 7.607 12.361 7.607h610.158c5.339 0.073 9.947-2.706 12.361-7.241zM13.897 489.179h610.158c0.219 0 0.439 0 0.585 0 7.68 0 13.97 6.29 13.97 13.97 0 4.315-1.975 8.265-5.12 10.825l-321.243 440.32c-2.706 3.73-7.387 5.705-11.703 5.705-4.608-0.146-8.777-2.487-11.337-6.363l-287.013-442.953c-2.779-4.242-2.926-9.801-0.585-14.263 2.487-4.462 7.168-7.241 12.288-7.241z" horiz-adv-x="639" data-tags="sort" />
<glyph unicode="&#xe624;" d="M0 222.866l186.514 465.701h20.626l182.711-465.701h-36.498l-64.366 164.352h-188.489l-64.731-164.352h-35.767zM112.274 415.671h165.888l-63.122 167.205c-5.266 13.093-11.63 31.305-19.017 54.565-5.705-20.334-11.922-38.693-18.725-55.223l-65.024-166.546zM415.89 222.866v23.552l271.579 410.405h-259.291v29.842h302.665v-23.625l-272.165-410.331h279.479v-29.842h-322.267zM235.447 736.11h293.303l-146.651 222.354zM235.447 159.89h293.303l-146.651-222.354z" horiz-adv-x="738" data-tags="list-sort" />
<glyph unicode="&#xe625;" d="M71.461 185.051c0-5.998-4.901-10.898-10.898-10.898h-49.664c-5.998 0-10.898 4.901-10.898 10.898v549.742c0 5.998 4.901 10.898 10.898 10.898h49.664c5.998 0 10.898-4.901 10.898-10.898v-549.742zM166.693 208.823c0-5.998-4.901-10.898-10.898-10.898h-49.664c-5.998 0-10.898 4.901-10.898 10.898v549.815c0 5.998 4.901 10.898 10.898 10.898h49.664c5.998 0 10.898-4.901 10.898-10.898v-549.815zM261.925 232.667c0-5.998-4.901-10.898-10.898-10.898h-49.664c-5.998 0-10.898 4.901-10.898 10.898v549.742c0 5.998 4.901 10.898 10.898 10.898h49.737c5.998 0 10.898-4.901 10.898-10.898l-0.073-549.742zM357.23 256.439c0-5.998-4.901-10.898-10.898-10.898h-49.664c-5.998 0-10.898 4.901-10.898 10.898v549.815c0 5.998 4.901 10.898 10.898 10.898h49.664c5.998 0 10.898-4.901 10.898-10.898v-549.815zM452.462 232.667c0-5.998-4.901-10.898-10.898-10.898h-49.737c-5.998 0-10.898 4.901-10.898 10.898v549.742c0 5.998 4.901 10.898 10.898 10.898h49.737c5.998 0 10.898-4.901 10.898-10.898v-549.742zM547.694 208.823c0-5.998-4.901-10.898-10.898-10.898h-49.664c-5.998 0-10.898 4.901-10.898 10.898v549.815c0 5.998 4.901 10.898 10.898 10.898h49.664c5.998 0 10.898-4.901 10.898-10.898v-549.815zM642.999 185.051c0-5.998-4.901-10.898-10.898-10.898h-49.664c-5.998 0-10.898 4.901-10.898 10.898v549.742c0 5.998 4.901 10.898 10.898 10.898h49.664c5.998 0 10.898-4.901 10.898-10.898v-549.742zM738.231 161.207c0-5.998-4.901-10.898-10.898-10.898h-49.664c-5.998 0-10.898 4.901-10.898 10.898v549.815c0 5.998 4.901 10.898 10.898 10.898h49.664c5.998 0 10.898-4.901 10.898-10.898v-549.815zM833.463 137.362c0-5.998-4.901-10.898-10.898-10.898h-49.664c-5.998 0-10.898 4.901-10.898 10.898v549.815c0 5.998 4.901 10.898 10.898 10.898h49.664c5.998 0 10.898-4.901 10.898-10.898 0 0 0-549.815 0-549.815zM928.768 113.591c0-5.998-4.901-10.898-10.898-10.898h-49.664c-5.998 0-10.898 4.901-10.898 10.898v549.742c0 5.998 4.901 10.898 10.898 10.898h49.664c5.998 0 10.898-4.901 10.898-10.898v-549.742zM1024 89.746c0-5.998-4.901-10.898-10.898-10.898h-49.664c-5.998 0-10.898 4.901-10.898 10.898v549.815c0 5.998 4.901 10.898 10.898 10.898h49.664c5.998 0 10.898-4.901 10.898-10.898v-549.815z" data-tags="sequence" />
<glyph unicode="&#xe626;" d="M1096.485 132.681l-20.261-20.187-401.554 401.627 7.753 7.899c15.214 15.141 15.214 39.936 0 55.003l-0.366 0.366 94.501 94.501c9.728 0.219 19.237 4.023 26.405 11.264l18.286 18.286c15.214 15.067 15.214 39.863 0 54.93l-192.585 192.439c-15.067 15.141-39.79 15.141-54.857 0l-18.359-18.286c-14.263-14.336-14.994-37.376-2.121-52.517l-85.943-86.089-0.293 0.293c-15.141 15.067-39.936 15.067-54.93 0l-104.229-104.155c-15.287-15.067-15.287-39.863 0-54.93l0.219-0.366-85.943-85.943c-15.287 13.019-38.254 12.288-52.663-2.048l-18.213-18.286c-15.141-15.141-15.141-39.936 0-55.003l192.512-192.512c15.141-15.141 39.936-15.141 55.077 0l18.139 18.286c7.314 7.314 11.118 16.823 11.264 26.478l94.574 94.501 0.366-0.293c15.141-15.067 39.936-15.067 55.003 0l7.753 7.899 401.701-401.627-20.187-20.261 50.469-50.542 128.878 128.805-50.395 50.469zM0 78.775h610.889v-142.994h-610.889v142.994z" horiz-adv-x="1147" data-tags="rules" />
<glyph unicode="&#xe627;" d="M1028.315 329.362c-20.919 20.553-67.218 31.451-137.728 32.402-47.762 0.512-105.179-3.657-165.595-12.142-27.063 15.653-54.93 32.622-76.8 53.102-58.953 55.003-108.032 131.291-138.679 215.259 1.975 7.826 3.73 14.702 5.266 21.723 0 0 33.134 188.416 24.357 252.123-1.17 8.704-1.902 11.264-4.315 18.066l-2.926 7.387c-8.997 20.846-26.697 42.862-54.418 41.691l-16.677 0.512c-30.939 0-56.174-15.799-62.757-39.497-20.114-74.167 0.658-185.051 38.254-328.777l-9.655-23.406c-26.917-65.609-60.635-131.73-90.405-190.025l-3.877-7.607c-31.305-61.294-59.758-113.371-85.504-157.403l-26.624-14.043c-1.902-1.024-47.543-25.161-58.222-31.598-90.697-54.126-150.821-115.639-160.841-164.425-3.145-15.579-0.805-35.474 15.36-44.763l25.746-12.873c11.191-5.632 22.967-8.485 34.962-8.485 64.585 0 139.63 80.457 242.981 260.827 119.296 38.839 255.122 71.168 374.199 88.942 90.697-51.127 202.313-86.601 272.677-86.601 12.507 0 23.333 1.243 32.037 3.511 13.531 3.584 24.942 11.264 31.89 21.723 13.678 20.553 16.384 48.859 12.727 77.897-1.17 8.558-8.046 19.237-15.433 26.478zM63.269-14.409c11.776 32.183 58.441 95.89 127.415 152.43 4.315 3.511 14.994 13.531 24.795 22.821-72.192-115.054-120.466-160.841-152.21-175.25zM471.698 926.135c20.773 0 32.549-52.37 33.573-101.449 0.951-49.006-10.533-83.456-24.722-108.983-11.849 37.742-17.554 97.207-17.554 136.119 0 0-0.805 74.313 8.704 74.313zM349.842 255.854c14.482 25.893 29.55 53.175 44.91 82.213 37.522 70.875 61.221 126.391 78.848 171.959 35.109-63.854 78.775-118.126 130.121-161.573 6.437-5.413 13.166-10.898 20.334-16.311-104.448-20.553-194.779-45.714-274.213-76.288zM1008.274 261.778c-6.363-3.95-24.576-6.29-36.279-6.29-37.815 0-84.626 17.262-150.235 45.422 25.161 1.902 48.347 2.853 69.047 2.853 37.888 0 49.225 0.146 86.309-9.289 37.010-9.509 37.522-28.745 31.159-32.695z" horiz-adv-x="1045" data-tags="pdf" />
<glyph unicode="&#xe628;" d="M986.405 410.405h-948.809c-18.798 0-37.595 18.798-37.595 37.595s18.798 37.595 37.595 37.595h948.809c18.798 0 37.595-18.798 37.595-37.595s-14.117-37.595-37.595-37.595z" data-tags="minus" />
<glyph unicode="&#xe629;" d="M991.013 841.801h-360.887v-117.541h276.919v-80.018h-276.919v-78.19h275.675v-78.775h-275.675v-78.775h275.675v-78.775h-275.675v-78.775h275.675v-78.775h-275.675v-118.199h360.887c18.139 0 32.987 15.433 32.987 34.231v719.36c0 18.871-14.848 34.231-32.987 34.231zM0 846.263v-796.453l590.775-113.81v1024l-590.775-113.737zM431.397 248.613h-77.239l-51.346 255.707c-2.706 13.385-4.389 28.306-4.901 44.763h-0.878c-1.317-18.139-3.218-33.061-5.632-44.763l-52.59-255.707h-80.457l-81.335 398.629h76.142l43.593-265.435c1.829-11.337 3.218-26.551 4.096-45.641h1.317c0.512 14.19 2.706 29.842 6.29 46.665l56.027 264.411h74.606l50.688-267.703c1.829-9.874 3.438-24.064 4.901-42.862h0.878c0.585 14.702 2.048 29.477 4.535 44.544l42.642 266.021h70.29l-81.627-398.629z" data-tags="ms-document" />
<glyph unicode="&#xe62a;" d="M462.043 957.44c115.346 11.776 234.423-17.554 331.118-81.627 75.045-49.079 136.338-118.418 176.567-198.437 38.4-76.654 57.125-163.109 53.979-248.759-4.023-100.937-38.181-200.704-98.011-282.185-62.683-86.089-152.722-152.137-254.171-184.832-94.72-31.451-198.656-34.011-294.766-7.387-99.547 26.917-190.318 85.138-256.512 164.133-62.318 73.801-103.058 165.522-115.639 261.339-16.896 122.514 12.727 250.953 82.066 353.426 83.237 125.806 224.914 210.798 375.369 224.329zM296.009 692.736c-25.015-16.091-31.086-47.835-32.402-75.41-6.437-39.205 5.925-81.701-12.581-118.565-9.143-17.115-29.623-19.529-46.885-20.919-0.512-19.895-0.512-39.863 0-59.758 18.213 0.366 39.497-5.047 48.055-22.967 16.53-35.767 5.486-75.995 11.191-113.737 1.829-26.77 5.559-57.71 28.526-75.264 24.357-18.432 56.539-16.384 85.431-16.165 0 17.554 0 35.109 0 52.663-16.603 0.146-38.254-2.048-49.079 13.385-11.045 31.744-5.632 66.048-7.241 98.962-2.779 20.48-5.486 41.691-16.018 59.904-7.461 13.97-19.529 24.869-32.841 33.207 11.41 7.241 22.382 15.872 29.55 27.575 13.019 19.090 16.457 42.423 19.237 64.805 1.755 32.987-3.73 67.218 7.095 99.035 10.313 16.603 32.549 13.019 49.225 13.312 0 17.554 0 35.109 0 52.663-27.282-0.219-57.271 3.438-81.262-12.727zM646.949 705.463c-0.439-17.554-0.439-35.109-0.073-52.663 14.409-0.512 30.647 2.633 43.081-6.583 8.411-5.339 9.362-16.165 10.313-25.088 6.729-42.789-3.584-87.918 13.458-128.951 6.949-18.944 21.504-33.865 38.327-44.544-20.114-10.679-34.67-30.135-41.326-51.712-13.019-39.497-3.877-81.481-10.679-121.929-1.097-8.923-2.121-19.529-10.533-24.722-12.946-7.461-28.379-6.656-42.789-6.583-0.146-17.554-0.293-35.109 0.146-52.663 28.745-0.219 60.635-2.121 85.065 15.872 24.43 19.31 27.867 53.467 28.233 82.359 2.999 34.743-2.926 71.461 10.386 104.521 7.314 19.237 29.696 25.6 48.421 25.307 0 19.968 0 39.936 0 59.904-12.946 1.902-27.648 1.39-38.034 10.606-10.679 9.509-13.97 24.283-16.969 37.669-4.315 36.279-1.975 72.923-5.413 109.275-3.291 22.382-11.557 46.665-32.475 58.441-23.698 14.775-52.517 11.191-79.141 11.483zM374.199 480.768c-21.577-7.607-29.184-37.815-14.336-55.077 9.070-12.873 26.478-14.263 40.667-10.825 19.602 6.802 29.257 33.061 17.847 50.688-8.046 15.287-28.306 22.235-44.178 15.214zM497.225 480.256c-8.997-3.511-15.872-11.483-18.725-20.626-8.777-20.773 9.289-48.055 32.183-46.153 19.675-2.706 38.619 16.238 35.767 35.913 1.755 24.283-28.087 41.911-49.225 30.866zM622.958 480.914c-12.288-5.12-22.747-17.627-21.723-31.525-2.267-19.383 15.579-38.4 35.255-35.986 24.795-2.633 44.251 28.233 31.817 49.591-6.949 16.969-28.599 25.088-45.349 17.92z" data-tags="swagger" />
<glyph unicode="&#xe62b;" d="M599.698 914.725c11.045 15.433 22.089 28.672 33.134 44.178-17.701-33.134-24.283-70.656-22.089-108.178 4.389-50.761 28.672-101.522 61.806-139.045 35.328-41.911 83.895-72.85 139.045-86.089 35.328-8.85 70.656-13.239 105.984-8.85 28.672 4.389 55.15 13.239 79.433 30.939 13.239 8.85 22.089 19.895 33.134 33.134-11.045-22.089-24.283-41.911-41.911-59.611-22.089-24.283-50.761-41.911-83.895-52.955-44.178-13.239-90.478-13.239-134.656-4.389-57.417 15.36-108.178 48.494-145.701 92.599-33.134 39.717-55.15 92.745-55.15 145.701 0 39.717 8.777 79.506 30.866 112.567zM354.67 830.83c19.895 26.478 37.522 52.955 57.417 81.701-28.672-48.567-41.984-105.984-39.717-163.328 2.194-64 24.283-128 57.417-181.029 55.15-88.283 141.239-154.551 240.64-185.417 70.656-22.089 145.701-26.478 216.357-8.85 68.462 17.627 130.267 59.611 169.984 117.029-15.433-46.373-44.178-88.283-79.433-121.417-41.911-39.717-92.745-70.656-147.895-83.895-66.194-17.627-136.85-17.627-205.312-4.389-81.847 22.089-156.891 66.194-214.235 128-17.701 15.433-28.745 35.328-41.984 52.955-33.061 48.567-55.15 105.984-61.806 163.401-6.583 68.389 8.85 143.433 48.567 205.239zM67.73 720.457c24.283 30.939 48.567 61.806 72.85 92.745-28.745-55.223-41.984-114.761-44.178-176.567-2.194-79.506 17.701-161.134 50.761-233.984 44.178-92.745 114.761-169.984 198.656-229.595 52.955-35.328 110.373-64 169.984-83.895 24.283-8.85 50.761-13.239 77.239-17.627 66.194-8.85 134.656-8.85 198.656 4.389 52.955 11.045 103.717 30.939 150.089 61.806 35.328 22.089 66.194 50.761 90.478 83.895-17.627-44.178-44.178-83.895-75.045-119.223-37.522-41.911-81.701-79.433-130.267-105.984-46.373-24.283-94.939-41.911-147.895-50.761-61.806-11.045-128-11.045-189.806-2.194-19.895 2.194-39.717 4.389-59.611 11.045-114.761 33.134-218.551 101.522-295.79 192.073-70.656 81.701-117.029 185.417-130.267 293.595-6.656 48.567-4.389 99.328 6.656 147.895 11.118 48.567 28.818 92.672 57.49 132.389z" horiz-adv-x="1057" data-tags="jquery" />
<glyph unicode="&#xe62c;" d="M356.206 410.185c0 0-57.051 110.007-55.003 190.391 1.536 57.417 131.072 114.249 181.906 196.681 50.761 82.432-6.363 162.743-6.363 162.743s12.727-59.246-21.138-120.466c-33.865-61.367-158.72-97.353-207.287-203.045-48.494-105.838 107.886-226.304 107.886-226.304zM569.856 744.302c0 0-194.56-74.021-194.56-158.647s52.809-112.055 61.367-139.557c8.411-27.575-14.775-74.021-14.775-74.021s76.142 52.882 63.415 114.249c-12.8 61.294-71.973 80.384-38.107 141.678 22.674 41.106 122.661 116.297 122.661 116.297zM335.067 298.423c179.785 6.437 245.321 63.122 245.321 63.122-116.297-31.671-425.106-29.623-427.227-6.363-2.048 23.259 95.159 42.277 95.159 42.277s-152.21 0-164.937-38.034c-12.654-38.034 72.046-67.291 251.685-61.001zM595.237 209.335c0 0 175.982 37.522 158.574 133.12-21.065 116.37-143.799 50.834-143.799 50.834s86.747 0 95.232-52.809c8.411-52.955-110.007-131.145-110.007-131.145zM508.489 260.023c0 0-44.325-11.63-110.007-19.017-88.064-9.874-194.56-2.048-203.045 12.727-8.338 14.775 14.848 23.186 14.848 23.186-105.765-25.381-47.909-69.705 76.069-78.263 106.277-7.241 264.411 31.671 264.411 31.671l-42.277 29.696zM235.739 167.643c0 0-47.982-1.317-50.761-26.77-2.779-25.234 29.55-47.909 148.041-54.93 118.418-7.022 201.655 32.402 201.655 32.402l-53.541 32.475c0 0-33.865-7.095-86.016-14.117-52.224-7.095-159.305 5.705-163.474 15.433-4.389 9.874 4.096 15.506 4.096 15.506zM696.686 53.394c18.359 19.822-5.705 35.255-5.705 35.255s8.411-9.874-2.706-21.138c-11.337-11.264-114.249-39.424-279.259-47.909-164.937-8.485-343.991 15.506-349.623 36.645-5.486 21.138 91.721 37.961 91.721 37.961-11.264-1.39-146.578-4.169-150.894-40.887-4.242-36.498 59.173-66.121 313.051-66.121 253.733 0.073 365.202 46.592 383.415 66.194zM598.016-29.696c-111.397-22.528-449.682-8.338-449.682-8.338s219.867-52.224 470.821-8.485c119.954 20.919 126.903 78.921 126.903 78.921s-36.645-39.497-148.041-62.098z" horiz-adv-x="755" data-tags="java" />
<glyph unicode="&#xe62d;" d="M267.63 416.402c0 0-42.715 91.867-41.179 159.013 1.17 47.982 98.231 95.451 136.338 164.279 38.034 68.901-4.754 135.973-4.754 135.973s9.509-49.518-15.872-100.645c-25.307-51.2-118.93-81.262-155.355-169.618-36.425-88.283 80.823-189.001 80.823-189.001zM427.813 695.589c0 0-145.847-61.879-145.847-132.535 0-70.729 39.57-93.623 46.007-116.59 6.363-23.040-11.118-61.879-11.118-61.879s57.051 44.105 47.543 95.451c-9.509 51.2-53.906 67.145-28.526 118.345 16.969 34.304 91.941 97.207 91.941 97.207zM251.831 323.072c134.802 5.339 183.954 52.736 183.954 52.736-87.186-26.478-318.683-24.722-320.293-5.339-1.536 19.456 71.314 35.328 71.314 35.328s-114.103 0-123.685-31.744c-9.509-31.817 54.053-56.247 188.709-50.981zM446.83 248.539c0 0 131.95 31.378 118.857 111.25-15.799 97.207-107.813 42.423-107.813 42.423s65.097 0 71.387-44.105c6.363-44.178-82.432-109.568-82.432-109.568zM381.879 290.962c0 0-33.207-9.801-82.505-15.945-66.048-8.192-145.847-1.682-152.283 10.679-6.217 12.361 11.118 19.383 11.118 19.383-79.287-21.211-35.913-58.222 57.051-65.317 79.653-6.071 198.217 26.478 198.217 26.478l-31.598 24.722zM177.371 213.797c0 0-35.986-1.097-38.107-22.309-2.048-21.065 22.162-40.009 110.958-45.861s151.186 27.063 151.186 27.063l-40.155 27.136c0 0-25.381-5.851-64.512-11.776-39.131-5.851-119.369 4.754-122.587 12.873-3.145 8.265 3.218 12.873 3.218 12.873zM522.898 118.345c13.751 16.53-4.242 29.55-4.242 29.55s6.29-8.265-2.048-17.627c-8.411-9.362-85.65-32.914-209.335-40.009-123.611-7.095-257.902 12.946-262.144 30.647-4.096 17.627 68.754 31.744 68.754 31.744-8.411-1.17-109.861-3.511-113.152-34.231-3.145-30.574 44.398-55.296 234.715-55.296 190.245-0.073 273.774 38.839 287.451 55.223zM448.951 48.933c-83.529-18.798-337.115-6.949-337.115-6.949s164.864-43.666 352.987-7.095c89.893 17.481 95.159 65.975 95.159 65.975s-27.502-32.987-111.031-51.931zM773.632 392.631h-125.44v-115.639h139.703v-34.743h-181.321v320.731h174.153v-34.743h-132.535v-101.376h125.367v-34.231zM1009.006 392.631h-125.367v-115.639h139.703v-34.743h-181.321v320.731h174.153v-34.743h-132.535v-101.376h125.367v-34.231z" data-tags="javaee" />
<glyph unicode="&#xe62e;" d="M127.415 161.353h-127.415v151.845h127.415v-151.845zM464.165 144.238c0-67.803-18.286-119.515-54.711-154.99s-86.601-53.248-150.528-53.248c-11.045 0-23.333 0.439-37.010 1.536-13.605 1.024-27.209 2.56-40.741 4.827v89.454h5.851c7.826-1.755 16.457-3.438 25.819-5.047 9.509-1.682 18.432-2.487 26.917-2.487 26.697 0 48.567 3.291 65.829 9.947 17.262 6.583 30.135 16.969 38.693 31.159 7.753 12.8 13.019 29.038 15.653 48.494 2.706 19.602 4.023 43.301 4.023 71.387v488.082h-107.739v83.163h207.872l0.073-612.279zM464.677 856.137h-114.030v103.863h114.030v-103.863zM769.902 146.871c-39.79 0-76.946 5.339-111.616 16.091-34.67 10.679-63.342 21.943-86.016 34.011v112.494h5.413c8.411-6.802 18.505-14.263 29.989-22.382 11.557-8.192 26.917-16.75 46.153-25.6 17.042-7.826 35.84-14.775 56.247-20.773 20.407-6.071 41.691-9.070 63.634-9.070 15.945 0 32.987 1.829 51.2 5.559 18.139 3.73 31.525 8.411 40.521 14.117 12.361 8.192 21.358 16.823 26.843 26.112 5.559 9.289 8.338 23.113 8.338 41.472 0 23.918-6.437 41.765-19.456 53.833-13.019 12.142-35.986 22.309-69.047 30.281-12.8 3.291-29.55 7.022-50.103 11.264-20.626 4.169-39.57 8.85-57.051 13.897-45.495 13.239-78.555 33.573-99.182 61.074-20.553 27.575-30.793 60.782-30.793 99.913 0 53.687 20.187 97.353 60.782 131.072 40.448 33.719 94.281 50.615 161.353 50.615 33.134 0 66.341-4.023 99.694-12.215 33.499-8.192 61.513-18.432 84.261-30.866v-107.154h-5.339c-25.6 20.187-54.053 36.206-85.504 47.835-31.525 11.776-63.122 17.627-95.159 17.627-32.987 0-60.928-6.949-83.675-20.773-22.747-13.751-34.231-34.816-34.231-62.903 0-24.869 6.802-43.301 20.334-55.735 13.385-12.142 35.182-22.309 65.024-30.135 14.848-3.803 31.451-7.607 49.81-11.337 18.286-3.73 37.522-8.046 57.783-13.093 43.959-11.045 77.239-29.33 99.255-54.857 22.309-25.454 33.426-60.343 33.426-104.375 0-25.6-5.12-49.81-15.287-72.704-10.094-22.894-24.942-42.496-44.325-58.807-21.431-17.847-45.422-31.378-72.265-40.521-26.843-9.216-60.416-13.97-101.010-13.97z" horiz-adv-x="1003" data-tags="javascript" />
<glyph unicode="&#xe62f;" d="M88.649 248.539h-88.576v105.691h88.576v-105.691zM322.853 236.763c0-47.25-12.654-83.163-37.961-107.959-25.381-24.649-60.27-37.083-104.741-37.083-7.753 0-16.311 0.439-25.819 1.17s-19.017 1.829-28.379 3.291v62.318h4.096c5.413-1.243 11.41-2.414 17.92-3.511 6.583-1.097 12.8-1.609 18.725-1.609 18.578 0 33.792 2.341 45.787 6.802 11.995 4.608 20.992 11.849 26.917 21.723 5.413 8.923 9.143 20.187 10.971 33.792 1.902 13.531 2.779 30.062 2.779 49.664v339.456h-74.825v57.929h144.603l-0.073-425.984zM323.218 732.014h-79.36v72.265h79.36v-72.265zM655.067 292.718c-5.705-4.169-13.312-10.094-22.894-17.627-9.509-7.534-18.725-13.531-27.575-17.993-12.361-6.363-24.283-11.41-35.767-14.848s-27.575-5.193-48.421-5.193c-17.042 0-33.207 3.218-48.494 9.655-15.36 6.437-28.818 15.433-40.448 27.136-11.118 11.337-19.968 25.381-26.697 42.057-6.656 16.603-9.947 34.304-9.947 52.809 0 28.672 5.998 53.102 18.139 73.216 12.069 20.187 31.232 36.206 57.49 48.055 23.186 10.533 50.615 17.993 82.286 22.016 31.671 4.096 65.755 7.168 102.327 9.143v13.312c0 16.384-2.56 29.477-7.461 39.424-4.974 10.021-11.849 17.774-20.699 23.186-8.923 5.705-19.822 9.435-32.695 11.337-12.8 1.829-26.039 2.853-39.643 2.853-16.018 0-34.962-2.487-56.759-7.241-21.723-4.901-43.447-11.849-65.17-20.992h-4.096v70.802c12.8 3.657 31.232 7.826 55.223 12.215 23.991 4.462 47.689 6.656 71.168 6.656 28.453 0 52.37-2.194 71.899-6.656 19.456-4.462 37.083-12.507 52.59-24.064 15.141-11.337 26.331-26.039 33.792-44.105 7.387-17.993 11.191-40.082 11.191-65.902v-283.282h-69.339v44.032c0 0 0 0 0 0zM655.067 350.501v114.907c-16.603-1.463-37.595-3.511-62.903-6.071-25.307-2.633-45.787-6.217-61.294-10.971-18.578-5.632-33.865-14.336-46.080-26.112-12.069-11.776-18.139-28.087-18.139-49.152 0-23.625 6.729-41.545 20.041-53.76 13.312-12.069 32.914-18.213 58.587-18.213 21.943 0 41.838 4.754 59.685 14.336 17.774 9.582 34.45 21.211 50.103 35.035zM837.193 182.272c4.608-1.975 11.483-4.681 20.699-7.973 9.070-3.365 19.602-6.437 31.086-9.435 12.873-3.218 24.869-5.851 35.694-7.826s22.674-2.999 35.474-2.999c21.504 0 39.79 2.853 54.784 8.558 14.994 5.632 26.624 13.531 35.035 23.625 7.899 10.167 13.458 21.87 16.603 35.255 3.291 13.312 4.901 28.526 4.901 45.568v36.352c-18.871-16.311-37.303-28.379-55.223-36.133-18.066-7.826-40.741-11.63-67.877-11.63-47.177 0-84.846 17.481-112.64 52.59-27.941 35.109-41.911 85.504-41.911 151.259 0 34.377 4.754 64.878 14.482 91.429 9.509 26.551 22.528 49.079 38.985 67.657 15.433 17.774 33.865 31.451 55.077 41.106 21.358 9.728 43.374 14.482 66.048 14.482 21.504 0 40.155-2.487 55.735-7.534 15.799-5.12 31.598-12.361 47.323-21.723l4.096 17.847h65.609v-367.031c0-70.217-15.433-121.71-46.080-154.624s-77.458-49.298-140.581-49.298c-20.261 0-40.96 1.609-61.952 4.827-21.211 3.218-40.96 7.534-59.173 12.946v72.704h3.803zM1071.397 360.96v227.182c-17.262 8.411-33.353 14.409-47.982 17.993-14.775 3.511-29.403 5.339-43.886 5.339-35.328 0-63.269-12.946-83.529-38.912s-30.427-63.195-30.427-111.616c0-45.934 7.753-80.969 23.186-104.887 15.433-23.991 40.448-35.986 75.118-35.986 18.066 0 36.645 3.584 55.735 10.752 19.237 7.168 36.571 17.189 51.785 30.135z" horiz-adv-x="1141" data-tags="jaggery" />
<glyph unicode="&#xe630;" d="M779.849 746.789l-90.917 91.063-299.008-299.008-299.008 299.008-90.917-91.063 298.935-298.935-298.935-298.935 0.439 0.073 90.77-90.843 298.715 298.715 298.715-298.715 90.77 90.843 0.439-0.073-298.935 298.935z" horiz-adv-x="780" data-tags="uncheck" />
<glyph unicode="&#xe631;" d="M325.851 221.111l-244.37 244.37-81.481-81.481 325.851-325.851 698.149 698.222-81.481 81.481z" data-tags="check" />
<glyph unicode="&#xe632;" d="M1024 214.894c0-12.069-4.023-24.137-12.069-32.183-20.114-20.114-48.201-20.114-68.315 0l-430.080 430.080-430.080-430.080c-20.114-20.114-48.201-20.114-68.315 0s-20.114 48.201 0 68.315l462.263 462.263c20.114 20.114 48.201 20.114 68.315 0l462.263-462.263c7.973-12.069 16.018-24.064 16.018-36.133z" data-tags="up-arrow" />
<glyph unicode="&#xe633;" d="M513.463 960c12.069 0 24.137-4.023 32.183-12.069 20.114-20.114 20.114-48.201 0-68.315l-430.080-430.080 430.080-430.080c20.114-20.114 20.114-48.201 0-68.315s-48.201-20.114-68.315 0l-462.263 462.263c-20.114 20.114-20.114 48.201 0 68.315l462.263 462.263c12.069 7.973 24.064 16.018 36.133 16.018z" horiz-adv-x="561" data-tags="left-arrow" />
<glyph unicode="&#xe634;" d="M47.25-64c-12.069 0-24.137 4.023-32.183 12.069-20.114 20.114-20.114 48.201 0 68.315l430.080 430.080-430.080 430.153c-20.114 20.114-20.114 48.201 0 68.315s48.201 20.114 68.315 0l462.263-462.263c20.114-20.114 20.114-48.201 0-68.315l-462.263-462.263c-12.069-12.069-24.064-16.091-36.133-16.091z" horiz-adv-x="561" data-tags="right-arrow" />
<glyph unicode="&#xe635;" d="M583.022 448l426.423 426.423c25.819 19.383 19.383 51.712 0 71.095s-51.712 19.383-71.095 0l-426.423-426.423-426.35 426.423c-19.383 19.383-51.712 19.383-71.095 0s-19.383-51.712 0-71.095l426.423-426.423-426.35-426.35c-19.383-19.383-19.383-51.712 0-71.095s51.712-19.383 71.095 0l426.35 426.35 426.423-426.423c19.383-19.383 51.712-19.383 71.095 0 25.819 19.383 19.383 51.712 0 71.095l-426.496 426.423z" horiz-adv-x="1026" data-tags="cancel" />
<glyph unicode="&#xe636;" d="M986.405 485.595h-436.882v436.882c0.073 18.725-18.725 37.522-37.522 37.522s-37.595-18.798-37.595-37.595v-436.809h-436.882c-18.725 0-37.522-18.798-37.522-37.595s18.798-37.595 37.595-37.595h436.809v-436.809c0-18.798 18.798-37.595 37.595-37.595 23.479 0 37.595 18.798 37.595 37.595v436.882h436.809c23.479-0.073 37.595 18.725 37.595 37.522s-18.798 37.595-37.595 37.595z" data-tags="add" />
<glyph unicode="&#xe637;" d="M585.143 828.343l21.943-21.943-131.657-131.657c-21.943-21.943-51.2-14.629-65.829 0s-21.943 21.943-21.943 36.571c0 14.629 7.314 21.943 14.629 36.571l7.314 7.314c-153.6-43.886-263.314-190.171-263.314-358.4 0-204.8 168.229-365.714 365.714-365.714 204.8 0 365.714 168.229 365.714 365.714 0 95.086-36.571 190.171-109.714 256-7.314 7.314-14.629 21.943-14.629 36.571s7.314 21.943 14.629 36.571c21.943 14.629 51.2 14.629 65.829 0 87.771-87.771 138.971-204.8 138.971-329.143 0-256-204.8-460.8-460.8-460.8s-460.8 204.8-460.8 460.8c0 226.743 160.914 416.914 373.029 453.486l-21.943 21.943c-7.314 7.314-14.629 21.943-14.629 36.571s7.314 21.943 14.629 36.571c21.943 14.629 51.2 14.629 73.143 0l109.714-117.029z" data-tags="refresh" />
<glyph unicode="&#xe638;" d="M1024 448c0-282.77-229.23-512-512-512s-512 229.23-512 512c0 282.77 229.23 512 512 512s512-229.23 512-512z" data-tags="circle" />
<glyph unicode="&#xe639;" d="M753.079 650.679l-320-281.6-151.479 177.079-87.479-74.679 228.279-264.558 407.479 356.279-76.8 87.479zM512 960c281.6 0 512-230.4 512-512s-230.4-512-512-512-512 230.4-512 512 230.4 512 512 512z" data-tags="ok" />
<glyph unicode="&#xe63a;" d="M317.659 766.537l-124.197-124.123 194.414-194.341-194.341-194.414 124.123-124.123 194.414 194.414 194.414-194.414 124.123 124.123-194.414 194.414 194.414 194.341-124.197 124.123-194.341-194.414-194.414 194.414zM512 960c282.697 0 512-229.303 512-512 0-282.843-229.303-512-512-512-282.77 0-512 229.157-512 512 0 282.697 229.23 512 512 512z" data-tags="error" />
<glyph unicode="&#xe63b;" d="M512 960c-281.6 0-512-230.4-512-512s230.4-512 512-512 512 230.4 512 512-230.4 512-512 512zM102.4 448c0 225.28 184.32 409.6 409.6 409.6 92.16 0 179.2-30.72 250.88-87.040l-573.44-573.44c-56.32 71.68-87.040 158.72-87.040 250.88zM512 38.4c-92.16 0-179.2 30.72-250.88 87.040l573.44 573.44c56.32-71.68 87.040-158.72 87.040-250.88 0-225.28-184.32-409.6-409.6-409.6z" data-tags="block" />
<glyph unicode="&#xe63c;" d="M36.571 330.971c0-29.257 0-51.2 0-80.457 0-14.629 14.629-29.257 36.571-29.257 65.829 0 131.657 0 197.486 0 80.457 0 160.914 0 241.371 0 7.314 0 7.314 0 14.629 0 0-14.629 0-21.943 0-36.571-29.257 0-65.829 0-95.086 0 0-21.943 0-43.886 0-65.829 21.943 0 43.886 0 65.829 0 0-14.629 0-21.943 0-36.571-87.771 0-175.543 0-263.314 0 0 14.629 0 21.943 0 36.571 21.943 0 43.886 0 65.829 0 0 21.943 0 43.886 0 65.829-7.314 0-7.314 0-14.629 0-65.829 0-138.971 0-204.8 0-43.886 0-58.514 14.629-73.143 51.2 0 0 0 0 0 0 0 168.229 0 343.771 0 512 0 0 0 0 0 7.314 7.314 21.943 21.943 43.886 43.886 51.2 0 0 7.314 0 7.314 0 204.8 0 409.6 0 614.4 0 0 0 0 0 0 0 36.571-14.629 51.2-29.257 51.2-73.143 0-29.257 0-51.2 0-80.457 0 0 0-7.314 0-7.314-14.629 0-21.943 0-29.257 0 0 0 0 7.314 0 7.314 0 29.257 0 58.514 0 80.457s-14.629 36.571-36.571 36.571c-197.486 0-387.657 0-585.143 0-21.943 0-36.571-14.629-36.571-36.571 0-80.457 0-160.914 0-248.686 0-36.571 0-80.457 0-117.029 0-7.314 0-7.314 0-14.629v-21.943zM789.943 82.286c0 21.943 0 43.886 0 65.829-65.829 0-131.657 0-197.486 0 0 138.971 0 270.629 0 409.6 102.4 0 197.486 0 299.886 0 0-36.571 0-73.143 0-117.029 14.629 0 21.943 0 29.257 0 0 0 0 7.314 0 7.314 0 36.571 0 80.457 0 117.029 0 21.943-14.629 36.571-36.571 36.571-95.086 0-190.171 0-285.257 0-29.257 0-36.571-14.629-36.571-36.571 0-146.286 0-299.886 0-446.171 0-21.943 7.314-36.571 21.943-43.886 65.829 7.314 138.971 7.314 204.8 7.314zM1002.057 433.371h-160.914c-14.629 0-21.943-7.314-21.943-21.943v-299.886c0-14.629 7.314-21.943 21.943-21.943h160.914c14.629 0 21.943 7.314 21.943 21.943v299.886c0 14.629-7.314 21.943-21.943 21.943zM994.743 118.857h-153.6v277.943h153.6v-277.943z" data-tags="devices" />
<glyph unicode="&#xe63d;" d="M477.257 256.658c-0.731 9.728 2.048 19.675 8.777 27.648l23.625 28.087c12.142 14.409 34.523 17.554 50.249 7.241l9.582-6.363c7.607 4.754 15.579 8.923 23.771 12.507l0.366 11.191c0.585 19.237 15.579 35.109 34.889 36.864l39.643 3.218c18.213 0 34.011-12.873 37.595-30.647l2.194-10.971c0.293-0.073 0.585-0.219 0.951-0.293 28.965 22.674 45.787 48.567 45.787 76.215v114.834c0 13.312-4.169 26.112-11.483 38.473-40.448-70.071-188.782-122.149-366.007-122.149-177.079 0-325.486 52.005-366.007 122.149-7.095-12.507-11.191-25.307-11.191-38.619v-114.834c0-88.576 168.96-160.622 377.271-160.622 34.743 0.073 68.096 2.341 99.986 6.071zM473.819 197.778c1.097 0.366 2.194 0.805 3.365 1.024l12.581 2.56c0.951 4.096 2.414 7.973 3.657 11.995-12.215-1.682-24.795-2.999-37.522-4.096 7.241-1.536 13.531-5.705 17.92-11.483zM341.065 14.848l-5.632 0.146c-15.214 0.512-27.648 12.361-28.891 27.502l-1.975 22.967c-1.243 15.214 9.143 28.891 23.991 31.89l4.315 0.878c0.658 2.56 1.463 5.193 2.341 7.68l-3.365 3.657c-10.459 10.971-10.971 28.087-1.097 39.79l14.848 17.774c9.509 11.337 27.136 13.824 39.497 5.632l2.853-1.902c2.999 1.682 5.998 3.291 9.070 4.754l0.073 3.365c0.439 13.824 10.533 25.015 23.845 27.941-14.409-0.731-28.818-1.609-43.739-1.609-177.079 0-325.486 52.005-366.007 122.149-7.022-12.288-11.191-25.161-11.191-38.473v-114.907c0-83.456 149.87-151.771 341.211-159.525-0.073 0.146-0.146 0.219-0.146 0.293zM744.448 794.112c-7.387-64.951-168.594-116.955-367.177-116.955-198.437 0-359.643 52.005-367.031 116.955-6.437-11.849-10.24-24.137-10.24-36.791v-114.761c0-88.722 168.96-160.622 377.271-160.622 208.457 0 377.49 71.899 377.49 160.622v114.761c0 12.654-3.803 25.015-10.313 36.791zM377.271 713.582c203.191 0 367.762 54.345 367.762 121.563 0 67.145-164.571 121.49-367.762 121.49-203.045 0-367.689-54.418-367.689-121.563 0-67.072 164.645-121.49 367.689-121.49zM480.11 183.003l0.073-0.439c3.072-0.878 6.071-1.829 8.997-2.926l2.121 2.048c2.56 2.414 5.559 4.169 8.704 5.486l-19.895-4.023c0.073-0.073 0.073-0.073 0-0.146zM862.647 195.072c-0.951 11.191-10.167 20.041-21.431 20.261l-22.235 0.731c-4.681 12.946-10.898 25.234-18.578 36.571l12.142 18.286c6.51 9.435 4.754 22.016-3.95 29.33l-28.014 23.625c-8.558 7.314-21.358 6.949-29.477-0.805l-15.506-14.482c-13.019 6.29-26.917 10.752-41.253 13.312l-4.315 21.358c-2.194 11.045-12.434 18.651-23.625 17.774l-36.498-3.145c-11.191-1.024-20.041-10.167-20.334-21.431l-0.731-21.723c-13.97-5.047-27.209-11.995-39.424-20.699l-18.359 12.215c-9.362 6.217-21.87 4.462-29.184-4.169l-23.625-28.16c-7.241-8.558-6.875-21.285 0.805-29.477l16.165-17.262c-5.559-12.507-9.509-25.746-11.849-39.278 9.435 2.706 20.187 1.243 27.867-5.266l17.627-14.848c11.776-9.947 14.117-26.99 5.339-39.79l-1.829-2.779c1.243-2.341 2.487-4.681 3.584-7.095l3.657-0.146c15.214-0.512 27.648-12.288 28.891-27.502l1.975-22.967c1.243-15.287-9.070-28.965-23.991-31.89l-3.803-0.731c-0.731-2.706-1.609-5.339-2.56-7.973l3.145-3.291c8.777-9.362 10.094-22.674 4.608-33.719 3.438 0.805 6.729 2.414 9.509 5.047l18.213 17.189c11.995-5.632 24.576-9.728 37.595-12.215l4.974-25.015c2.194-11.045 12.434-18.651 23.625-17.774l36.498 3.145c11.191 1.024 20.041 10.167 20.407 21.431l0.805 24.503c13.312 4.681 25.966 11.045 37.595 19.017l20.114-13.312c9.362-6.217 21.943-4.462 29.257 4.096l23.552 28.014c7.387 8.631 6.949 21.285-0.731 29.477l-16.311 17.262c5.925 12.581 10.24 25.966 12.8 39.57l22.235 4.535c10.971 2.194 18.651 12.361 17.701 23.625l-3.072 36.571zM671.086 89.307c-39.424-3.438-74.24 26.039-77.531 65.39-3.291 39.497 26.112 74.24 65.463 77.605 39.424 3.291 74.24-26.039 77.531-65.463 3.365-39.497-26.039-74.313-65.463-77.531zM538.551 155.575l-17.627 14.848c-5.413 4.608-13.385 4.315-18.578-0.512l-9.728-9.143c-8.192 4.023-16.969 6.729-25.966 8.485l-2.779 13.385c-1.317 6.949-7.826 11.776-14.848 11.191l-22.967-1.975c-7.095-0.585-12.654-6.363-12.873-13.531l-0.439-13.678c-8.85-3.145-17.189-7.534-24.795-13.019l-11.63 7.68c-5.925 3.95-13.824 2.853-18.359-2.56l-14.921-17.774c-4.535-5.413-4.389-13.385 0.512-18.505l10.167-10.898c-3.511-7.973-6.071-16.311-7.461-24.869l-14.555-2.999c-6.949-1.39-11.776-7.826-11.191-14.848l1.975-22.967c0.585-7.095 6.363-12.581 13.458-12.873l15.726-0.439c2.853-7.534 6.583-14.629 11.118-21.211l-8.777-13.239c-3.877-5.925-2.779-13.824 2.633-18.432l17.627-14.848c5.413-4.608 13.458-4.315 18.578 0.439l11.557 10.825c7.534-3.511 15.506-6.144 23.625-7.68l3.145-15.799c1.39-6.949 7.826-11.703 14.848-11.191l22.967 1.975c7.022 0.585 12.654 6.363 12.873 13.531l0.439 15.506c8.411 2.999 16.384 6.949 23.698 11.995l12.727-8.411c5.925-3.95 13.824-2.853 18.432 2.633l14.848 17.627c4.608 5.413 4.389 13.385-0.439 18.578l-10.24 10.898c3.803 7.899 6.51 16.384 8.046 24.942l13.97 2.926c6.949 1.317 11.776 7.753 11.191 14.848l-1.975 22.967c-0.585 7.095-6.363 12.581-13.531 12.8l-13.97 0.439c-2.926 8.192-6.802 15.872-11.776 23.040l7.607 11.483c4.169 5.851 3.145 13.824-2.341 18.359zM451.803 22.601c-24.795-2.121-46.811 16.457-48.859 41.253-2.121 24.869 16.457 46.738 41.253 48.859 24.869 2.121 46.811-16.384 48.859-41.253 2.121-24.869-16.384-46.811-41.253-48.859z" horiz-adv-x="866" data-tags="dss" />
<glyph unicode="&#xe63e;" d="M0 681.106c0 12.069 4.023 24.137 12.069 32.183 20.114 20.114 48.201 20.114 68.315 0l430.080-430.080 430.080 430.153c20.114 20.114 48.201 20.114 68.315 0s20.114-48.201 0-68.315l-462.263-462.263c-20.114-20.114-48.201-20.114-68.315 0l-462.263 462.263c-11.995 11.995-16.018 24.064-16.018 36.059z" data-tags="down-arrow" />
<glyph unicode="&#xe63f;" d="M149.211 698.587l-50.176-50.176c-6.583-6.583-8.558-16.823-4.974-25.454s11.995-14.629 21.285-14.629h211.749c12.727 0 23.113 10.971 23.113 23.771v211.749c0 9.362-5.705 17.701-14.336 21.285-8.558 3.657-18.505 1.609-25.161-4.901l-50.176-50.249-132.974 132.974c-21.65 21.65-56.759 21.65-78.482 0l-32.841-32.914c-10.386-10.386-16.238-24.503-16.238-39.205s5.851-28.818 16.238-39.278l132.974-132.974zM327.095 286.135h-211.749c-9.362 0-17.774-5.193-21.285-13.824-3.584-8.631-1.609-18.359 4.901-24.942l50.249-50.103-132.974-132.901c-10.386-10.459-16.238-24.503-16.238-39.205s5.851-28.818 16.238-39.205l32.914-32.914c21.723-21.65 56.832-21.65 78.482 0l132.974 132.974 50.176-50.176c6.656-6.583 16.603-8.558 25.161-4.974 8.631 3.511 14.263 11.922 14.263 21.211v211.749c0 12.727-10.386 22.309-23.113 22.309zM874.715 197.339l50.176 50.176c6.583 6.583 8.485 16.165 4.974 24.722-3.511 8.631-11.922 13.824-21.285 13.824h-211.675c-12.727 0-23.113-9.582-23.113-22.309v-211.749c0-9.289 5.705-17.701 14.336-21.285 8.631-3.511 18.578-1.609 25.161 5.047l50.249 50.176 132.974-132.974c21.65-21.723 56.759-21.723 78.409 0l32.914 32.914c10.313 10.459 16.165 24.576 16.165 39.278s-5.851 28.818-16.311 39.205l-132.974 132.974zM696.905 608.402h211.675c9.362 0 17.774 5.998 21.285 14.629s1.609 18.651-4.974 25.307l-50.176 50.249 132.974 133.047c10.386 10.386 16.311 24.503 16.311 39.278s-5.851 28.818-16.311 39.205l-32.914 32.914c-21.65 21.65-56.759 21.65-78.409 0l-132.974-132.974-50.176 50.176c-6.583 6.583-16.603 8.558-25.161 4.974-8.631-3.584-14.336-11.995-14.336-21.285v-211.749c0-12.727 10.459-23.771 23.186-23.771zM512 612.791c-91.063 0-164.791-73.801-164.791-164.791s73.728-164.791 164.791-164.791 164.718 73.801 164.718 164.791-73.728 164.791-164.718 164.791zM512 330.386c-64.951 0-117.614 52.663-117.614 117.614s52.59 117.614 117.614 117.614c64.951 0 117.614-52.663 117.614-117.614s-52.663-117.614-117.614-117.614z" data-tags="endpoint" />
<glyph unicode="&#xe640;" d="M880.055 960c-79.506 0-143.945-64.439-143.945-144.018 0-72.265 53.248-131.877 122.661-142.19v-204.434h-117.175l-218.405 218.258c-6.217 6.217-16.238 6.217-22.382 0l-220.087-220.087h-158.062v-245.321c-69.413-10.313-122.661-69.998-122.661-142.263 0-79.506 64.439-143.945 143.945-143.945s143.945 64.439 143.945 143.945c0 72.265-53.248 131.95-122.661 142.263v202.679h119.003l216.503-216.503c6.144-6.144 16.165-6.144 22.382 0l218.331 218.258h159.817v247.15c69.486 10.313 122.734 69.925 122.734 142.19 0 79.579-64.439 144.018-143.945 144.018zM261.778 78.629c0-65.317-52.955-118.199-118.199-118.199-65.317 0-118.199 52.882-118.199 118.199s52.955 118.199 118.199 118.199c65.243 0.073 118.199-52.882 118.199-118.199zM881.81 697.783c-65.317 0-118.199 52.955-118.199 118.199s52.955 118.199 118.199 118.199c65.317 0 118.199-52.955 118.199-118.199s-52.882-118.199-118.199-118.199z" data-tags="bpmn" />
<glyph unicode="&#xe641;" d="M864.329 314.807v86.309h0.219v60.855h-319.561v119.223c90.478 14.629 159.671 92.818 159.671 187.465 0 104.96-85.065 190.098-190.098 190.098-104.96 0-190.098-85.138-190.098-190.098 0-94.647 69.193-172.837 159.671-187.465v-119.296h-324.169v-30.427h-0.293v-116.151h4.169c-92.453-12.727-163.84-91.941-163.84-187.977 0-104.96 85.138-190.098 190.098-190.098s190.098 85.138 190.098 190.098c0 96.037-71.314 175.25-163.913 188.050h4.169v85.723h582.949v-86.309c-90.478-14.629-159.671-92.891-159.671-187.465 0-104.96 85.138-190.098 190.098-190.098 105.033 0 190.098 85.138 190.098 190.098 0.073 94.647-69.12 172.837-159.598 187.465zM337.262 126.683c0-81.701-66.194-147.968-147.968-147.968-81.701 0-147.968 66.267-147.968 147.968s66.267 147.968 147.968 147.968c81.774 0 147.968-66.267 147.968-147.968zM366.665 769.39c0 81.701 66.267 147.968 147.968 147.968 81.774 0 147.968-66.267 147.968-147.968s-66.194-147.968-147.968-147.968c-81.701-0.073-147.968 66.194-147.968 147.968zM835.511-21.285c-81.701 0-147.968 66.267-147.968 147.968s66.267 147.968 147.968 147.968c81.774 0 147.968-66.267 147.968-147.968s-66.194-147.968-147.968-147.968z" data-tags="bpel" />
<glyph unicode="&#xe642;" d="M982.528 552.448l-65.024 7.607c-8.923 33.938-22.309 66.341-39.351 96.768l40.009 50.615c14.848 18.725 13.239 45.422-3.438 62.318l-78.043 78.043c-16.823 16.823-43.593 18.359-62.318 3.511l-49.152-38.985c-31.89 18.725-65.975 32.987-101.742 42.642l-7.387 63.561c-2.779 23.698-22.821 41.472-46.519 41.472h-110.665c-23.771 0-43.739-17.774-46.592-41.472l-7.387-63.561c-36.718-9.801-71.68-24.722-104.375-44.105l-50.981 40.375c-18.725 14.921-45.422 13.166-62.318-3.511l-78.117-78.263c-16.896-16.823-18.359-43.52-3.584-62.245l42.642-53.906c-17.042-30.793-29.989-63.561-38.546-97.719l-68.242-7.826c-23.698-2.706-41.472-22.747-41.472-46.519v-110.665c0-23.698 17.847-43.739 41.472-46.519l71.973-8.338c9.070-31.159 21.65-61.147 37.669-89.307l-45.495-57.344c-14.775-18.725-13.166-45.349 3.584-62.245l78.19-78.263c16.896-16.823 43.593-18.359 62.318-3.584l56.905 44.983c29.257-16.823 60.416-29.989 92.818-39.278l8.558-73.216c2.779-23.698 22.821-41.472 46.519-41.472h110.665c23.698 0 43.813 17.847 46.519 41.618l8.192 70.656c34.889 9.070 68.169 22.528 99.547 40.229l55.077-43.666c18.725-14.775 45.495-13.093 62.318 3.511l78.19 78.263c16.896 16.823 18.359 43.52 3.511 62.245l-42.862 54.345c17.774 30.793 31.671 63.561 40.887 97.938l65.975 7.607c23.845 2.779 41.545 22.821 41.545 46.519v110.592c0.073 23.771-17.627 43.813-41.472 46.592zM512 109.787c-186.807 0-338.213 151.479-338.213 338.213s151.406 338.286 338.213 338.286c186.807 0 338.213-151.479 338.213-338.213 0-186.88-151.406-338.286-338.213-338.286zM300.251 295.643c-16.384-16.384-16.384-42.935 0-59.319 8.192-8.192 18.944-12.288 29.696-12.288s21.504 4.096 29.696 12.288l137.728 137.801-59.319 59.246-137.801-137.728zM644.608 550.985l59.977 31.013 31.451 60.709-29.257 29.257-60.709-31.451-31.086-59.977-73.070-72.997 29.623-29.623 73.070 73.070zM657.701 391.753l-5.632 0.512c-10.24 0-19.968-2.121-28.965-5.486l-172.251 172.325c3.365 9.070 5.413 18.725 5.413 28.965l-0.512 5.632c-2.999 43.666-38.912 78.263-83.383 78.263-12.946 0-25.015-3.145-35.986-8.411l55.735-55.735c2.926-2.926 4.974-6.363 6.29-10.094 3.657-9.874 1.682-21.504-6.29-29.477-5.413-5.413-12.581-8.119-19.749-8.119-3.291 0-6.583 0.731-9.728 1.902-3.657 1.39-7.095 3.365-10.094 6.29l-55.662 55.735c-5.193-10.971-8.411-23.040-8.411-35.986 0-44.398 34.597-80.384 78.263-83.383l5.632-0.585c10.24 0 19.968 2.121 28.965 5.413l172.178-172.251c-3.218-8.923-5.339-18.651-5.339-28.891l0.585-5.632c2.926-43.666 38.912-78.263 83.31-78.263 12.946 0 25.088 3.145 35.986 8.411l-55.735 55.735c-2.926 2.926-4.974 6.437-6.363 10.021-3.657 9.874-1.682 21.504 6.363 29.477 5.413 5.486 12.581 8.192 19.749 8.192 3.291 0 6.583-0.731 9.728-1.902 3.657-1.39 7.168-3.365 10.021-6.29l55.735-55.735c5.266 10.971 8.411 23.040 8.411 35.986 0.073 44.398-34.597 80.384-78.263 83.383z" data-tags="gadget" />
<glyph unicode="&#xe643;" d="M468.114 477.257c-14.629 0-29.257 7.314-43.886 14.629-73.143 36.571-138.971 73.143-212.114 109.714-58.514 29.257-117.029 58.514-175.543 87.771v0c-14.629 7.314-29.257 14.629-29.257 29.257s14.629 21.943 21.943 29.257v0l80.457 43.886c109.714 51.2 212.114 102.4 307.2 153.6 7.314 7.314 21.943 7.314 29.257 7.314 0 0 7.314 0 7.314 0v0h29.257c29.257 0 58.514-14.629 80.457-29.257 14.629-7.314 21.943-7.314 29.257-14.629 73.143-36.571 153.6-80.457 226.743-117.029 29.257-14.629 58.514-29.257 87.771-43.886v0c7.314-7.314 21.943-7.314 21.943-29.257 0-14.629-14.629-21.943-21.943-29.257l-14.629-7.314c-124.343-65.829-248.686-124.343-373.029-190.171-14.629-7.314-29.257-14.629-51.2-14.629zM460.8 945.371c0 0-7.314 0-7.314 0-14.629-7.314-21.943-7.314-21.943-14.629-102.4-51.2-204.8-102.4-307.2-153.6l-80.457-43.886c-14.629-7.314-14.629-7.314-14.629-14.629s7.314-7.314 14.629-14.629v0c58.514-29.257 117.029-58.514 175.543-87.771 73.143-36.571 138.971-73.143 212.114-109.714 29.257-14.629 58.514-14.629 80.457 0 124.343 65.829 248.686 124.343 373.029 190.171l14.629 7.314c7.314 7.314 14.629 7.314 14.629 14.629s-7.314 7.314-14.629 14.629v0c-29.257 14.629-58.514 29.257-87.771 43.886-73.143 36.571-146.286 73.143-226.743 117.029-7.314 7.314-21.943 7.314-29.257 14.629-21.943 14.629-43.886 29.257-73.143 36.571h-21.943zM526.629-64h-14.629c-14.629 7.314-21.943 21.943-21.943 36.571 0 51.2 0 109.714 0 160.914 0 80.457 0 168.229 0 248.686 0 36.571 14.629 58.514 43.886 73.143 109.714 58.514 219.429 109.714 329.143 168.229l36.571 21.943c7.314 7.314 14.629 7.314 21.943 7.314 14.629 0 29.257-7.314 29.257-36.571v-146.286c0-80.457 0-153.6 0-234.057 0-36.571-14.629-65.829-51.2-80.457-87.771-51.2-182.857-102.4-270.629-153.6l-87.771-51.2c0-7.314-7.314-7.314-14.629-14.629v0zM512-49.371h7.314c0 0 7.314 0 7.314 7.314l95.086 51.2c87.771 51.2 182.857 102.4 270.629 153.6 29.257 14.629 36.571 36.571 36.571 65.829 0 80.457 0 153.6 0 234.057v146.286c0 14.629-7.314 21.943-14.629 21.943s-7.314 0-14.629-7.314l-36.571-21.943c-109.714-51.2-219.429-109.714-329.143-168.229-14.629 0-29.257-21.943-29.257-43.886 0-80.457 0-168.229 0-248.686 0-51.2 0-109.714 0-160.914 0-14.629 0-21.943 7.314-29.257zM431.543-56.686c14.629 7.314 14.629 14.629 14.629 29.257 0 138.971 0 270.629 0 409.6 0 36.571-14.629 58.514-43.886 73.143-95.086 51.2-197.486 102.4-299.886 153.6-21.943 7.314-43.886 21.943-65.829 29.257-21.943 14.629-36.571 0-36.571-21.943 0 0 0-7.314 0-7.314 0-124.343 0-248.686 0-373.029 0-36.571 14.629-58.514 43.886-80.457 124.343-73.143 248.686-138.971 373.029-212.114 7.314 0 14.629 0 14.629 0z" horiz-adv-x="958" data-tags="application" />
<glyph unicode="&#xe644;" d="M989.403 530.359c-0.219 0-0.366 0-0.658 0-9.728 153.819-137.655 275.602-293.888 275.602-144.238 0-264.192-103.643-289.646-240.421-3.218 0.073-6.656 0.219-9.947 0.219-107.447 0-198.071-71.168-227.694-168.887-4.535 0.366-9.143 0.658-13.824 0.658-84.846 0-153.746-68.754-153.746-153.746s68.754-153.746 153.6-153.746c1.243 0 835.657 0 835.657 0 121.637 0 220.087 98.597 220.087 220.087s-98.304 220.233-219.941 220.233z" horiz-adv-x="1209" data-tags="cloud" />
<glyph unicode="&#xe645;" d="M68.096 584.997c5.486-18.651 13.019-36.718 22.674-53.614l-27.355-34.45c-8.923-11.191-7.899-27.209 2.194-37.376l46.958-46.958c10.094-10.167 26.185-11.045 37.376-2.194l34.158 27.063c17.627-10.094 36.352-17.993 55.808-23.552l5.12-43.959c1.682-14.263 13.678-24.942 27.941-24.942h66.487c14.263 0 26.258 10.679 27.941 24.942l4.901 42.423c20.919 5.413 40.96 13.531 59.831 24.137l33.061-26.185c11.264-8.85 27.282-7.826 37.376 2.121l46.958 47.031c10.167 10.094 11.045 26.185 2.121 37.376l-25.673 32.622c10.679 18.505 19.017 38.181 24.576 58.807l39.643 4.535c14.336 1.682 24.942 13.751 24.942 27.941v66.487c0 14.263-10.679 26.258-24.942 27.941l-39.058 4.535c-5.339 20.407-13.385 39.863-23.625 58.149l24.064 30.354c8.923 11.264 7.899 27.282-2.121 37.376l-46.885 46.958c-10.094 10.094-26.112 10.971-37.376 2.048l-29.55-23.406c-19.163 11.264-39.643 19.822-61.147 25.6l-4.389 38.254c-1.682 14.263-13.678 24.942-28.014 24.942h-66.414c-14.263 0-26.258-10.679-27.941-24.942l-4.462-38.181c-22.016-5.925-43.081-14.848-62.683-26.551l-30.574 24.357c-11.264 8.923-27.355 7.899-37.449-2.121l-46.958-47.031c-10.167-10.094-11.045-26.112-2.194-37.376l25.6-32.402c-10.24-18.505-17.993-38.181-23.113-58.661l-40.96-4.681c-14.263-1.682-24.942-13.678-24.942-27.941v-66.487c0-14.263 10.679-26.258 24.942-27.941l43.154-5.047zM308.955 764.855c60.562 0 109.861-49.371 109.861-109.934s-49.298-109.861-109.861-109.861c-60.562 0-109.934 49.371-109.934 109.934 0.073 60.562 49.371 109.861 109.934 109.861zM966.071 568.686l-35.035 29.623c-10.825 9.143-26.697 8.704-36.937-1.024l-19.383-18.139c-16.311 7.899-33.719 13.458-51.639 16.75l-5.413 26.697c-2.779 13.824-15.579 23.333-29.623 22.235l-45.787-3.877c-14.117-1.243-25.161-12.727-25.6-26.843l-0.878-27.209c-17.554-6.363-34.158-14.994-49.371-25.893l-23.113 15.36c-11.849 7.826-27.502 5.559-36.571-5.266l-29.696-35.255c-9.070-10.825-8.631-26.697 1.024-37.010l20.334-21.577c-7.022-15.799-12.069-32.402-14.921-49.518l-28.965-5.851c-13.824-2.779-23.406-15.579-22.309-29.623l3.95-45.714c1.243-14.043 12.727-25.088 26.843-25.527l31.305-0.951c5.705-14.921 13.093-29.038 22.089-42.277l-17.481-26.405c-7.826-11.849-5.559-27.502 5.266-36.645l35.035-29.623c10.752-9.143 26.77-8.631 36.937 0.951l22.967 21.504c14.994-7.022 30.866-12.215 47.104-15.36l6.29-31.378c2.779-13.824 15.579-23.333 29.623-22.235l45.787 3.877c13.97 1.243 25.088 12.727 25.527 26.843l0.951 30.72c16.677 5.851 32.549 13.897 47.177 23.845l25.234-16.677c11.776-7.753 27.502-5.559 36.645 5.193l29.55 35.109c9.216 10.752 8.704 26.697-0.951 36.937l-20.334 21.65c7.461 15.799 12.946 32.475 16.018 49.664l27.794 5.705c13.824 2.779 23.406 15.579 22.235 29.623l-3.877 45.787c-1.243 14.043-12.727 25.015-26.843 25.454l-27.941 0.878c-5.778 16.238-13.605 31.598-23.259 45.861l15.287 22.967c7.973 11.703 5.851 27.502-5.047 36.645zM793.6 304.128c-49.445-4.242-93.111 32.622-97.207 81.993-4.169 49.445 32.695 93.111 82.066 97.28 49.445 4.242 93.111-32.622 97.207-82.066 4.242-49.445-32.622-93.111-82.066-97.207zM228.206 180.955c-14.043-1.463-24.795-13.239-24.942-27.429l-0.366-28.16c-0.219-14.19 10.24-26.185 24.283-27.941l20.699-2.633c3.438-12.581 8.338-24.649 14.702-35.986l-13.312-16.457c-8.923-11.045-8.265-26.843 1.609-37.010l19.749-20.187c9.947-10.094 25.746-11.264 36.937-2.56l16.603 12.8c11.703-6.875 24.064-12.361 36.937-16.165l2.194-21.358c1.463-14.043 13.239-24.795 27.429-24.942l28.16-0.293c14.117-0.219 26.112 10.24 27.941 24.283l2.56 20.261c14.043 3.438 27.355 8.631 40.082 15.579l15.579-12.581c11.045-8.923 26.843-8.192 36.937 1.682l20.187 19.675c10.167 9.874 11.191 25.673 2.56 36.937l-11.776 15.579c7.387 12.288 13.019 25.234 16.896 38.985l18.432 1.902c14.043 1.463 24.869 13.239 24.942 27.429l0.366 28.16c0.219 14.117-10.24 26.185-24.283 27.941l-18.066 2.267c-3.438 13.605-8.558 26.77-15.214 38.985l11.264 13.824c8.85 11.045 8.265 26.843-1.682 37.010l-19.675 20.187c-9.874 10.094-25.746 11.191-36.937 2.487l-13.458-10.313c-12.727 7.68-26.331 13.605-40.521 17.627l-1.829 17.481c-1.463 13.97-13.239 24.795-27.355 24.869l-28.16 0.366c-14.117 0.219-26.185-10.24-27.941-24.283l-2.267-17.335c-14.702-3.803-28.818-9.582-41.984-17.189l-13.897 11.337c-11.045 8.923-26.843 8.265-36.937-1.682l-20.334-19.822c-10.094-9.874-11.191-25.673-2.56-36.937l11.922-15.36c-6.875-12.215-12.361-25.234-15.945-38.985l-19.529-2.048zM410.112 212.773c40.375-0.439 72.85-33.719 72.338-74.094-0.439-40.448-33.719-72.85-74.167-72.411s-72.777 33.719-72.338 74.167c0.439 40.448 33.719 72.777 74.167 72.338z" horiz-adv-x="1038" data-tags="service" />
<glyph unicode="&#xe646;" d="M0 477.257c51.2 0 58.514 29.257 58.514 58.514 0 21.943 0 43.886-7.314 65.829s0 36.571 0 58.514c0 65.829 43.886 95.086 109.714 95.086h14.629v-43.886h-14.629c-43.886 0-58.514-21.943-58.514-65.829 0-14.629 0-36.571 7.314-51.2 0-21.943 7.314-36.571 7.314-58.514 0-51.2-21.943-73.143-51.2-80.457v0c21.943-7.314 43.886-36.571 43.886-80.457 0-21.943 0-36.571-7.314-58.514 0-21.943-7.314-36.571-7.314-51.2 0-43.886 14.629-65.829 58.514-65.829h14.629v-43.886h-7.314c-65.829 0-109.714 29.257-109.714 102.4 0 21.943 0 43.886 7.314 58.514 0 21.943 7.314 43.886 7.314 58.514 0 21.943-7.314 58.514-58.514 58.514-7.314 0-7.314 43.886-7.314 43.886zM1024 433.371c-51.2 0-58.514-29.257-58.514-58.514 0-21.943 0-43.886 7.314-58.514 0-21.943 7.314-43.886 7.314-58.514 0-73.143-43.886-102.4-109.714-102.4h-14.629v43.886h14.629c43.886 0 58.514 21.943 58.514 65.829 0 14.629 0 36.571-7.314 51.2 0 14.629-7.314 36.571-7.314 58.514 0 51.2 21.943 73.143 51.2 80.457v0c-36.571 7.314-51.2 36.571-51.2 80.457 0 21.943 0 36.571 7.314 58.514 0 14.629 7.314 36.571 7.314 51.2 0 43.886-14.629 65.829-58.514 65.829h-14.629v43.886h14.629c65.829 0 109.714-29.257 109.714-95.086 0-21.943 0-43.886-7.314-65.829 0-21.943-7.314-43.886-7.314-65.829 0-29.257 7.314-58.514 58.514-58.514 0 7.314 0-36.571 0-36.571zM204.8 550.4c7.314-7.314 14.629-21.943 14.629-36.571l-14.629-21.943c-7.314-7.314-7.314-21.943 0-29.257l36.571-36.571c7.314-7.314 21.943-7.314 29.257 0l21.943 21.943c14.629-7.314 29.257-14.629 36.571-14.629v-29.257c0-7.314 7.314-14.629 21.943-14.629h43.886c7.314 0 21.943 7.314 21.943 14.629v29.257c21.943 0 36.571 7.314 51.2 14.629l21.943-21.943c7.314-7.314 21.943-7.314 29.257 0l36.571 36.571c7.314 7.314 7.314 21.943 0 29.257l-21.943 21.943c7.314 14.629 14.629 29.257 14.629 43.886h29.257c7.314 0 14.629 7.314 14.629 21.943v43.886c0 7.314-7.314 21.943-14.629 21.943h-29.257c0 21.943-7.314 29.257-14.629 43.886l14.629 21.943c7.314 7.314 7.314 21.943 0 29.257l-36.571 29.257c-7.314 7.314-21.943 7.314-29.257 0l-14.629-14.629c-14.629 7.314-29.257 14.629-43.886 21.943v29.257c0 7.314-7.314 14.629-21.943 14.629h-51.2c-7.314 0-14.629-7.314-14.629-21.943v-29.257c-21.943 0-36.571-7.314-51.2-14.629l-21.943 21.943c-7.314 7.314-21.943 7.314-29.257 0l-29.257-36.571c-7.314-7.314-7.314-21.943 0-29.257l14.629-21.943c-7.314-14.629-7.314-29.257-14.629-43.886h-29.257c-7.314 0-14.629-7.314-14.629-21.943v-43.886c0-7.314 7.314-21.943 14.629-21.943l29.257-7.314zM380.343 682.057c43.886 0 80.457-36.571 80.457-80.457s-36.571-73.143-80.457-73.143-80.457 29.257-80.457 73.143c0 43.886 36.571 80.457 80.457 80.457zM841.143 543.086l-21.943 21.943c-7.314 7.314-21.943 7.314-29.257 0l-14.629-14.629c-14.629 7.314-21.943 7.314-36.571 14.629l-7.314 21.943c7.314 0 0 7.314-14.629 7.314h-29.257c-14.629 0-21.943-7.314-21.943-21.943v-21.943c-14.629 0-21.943-7.314-36.571-14.629l-14.629 14.629c-7.314 0-21.943 0-21.943-7.314l-21.943-21.943c-7.314-7.314-7.314-21.943 0-29.257l14.629-14.629c-7.314-14.629-7.314-21.943-14.629-36.571h-21.943c-7.314 0-14.629-14.629-14.629-21.943v-29.257c0-7.314 7.314-14.629 21.943-14.629h21.943c7.314-21.943 14.629-29.257 14.629-36.571l-7.314-21.943c-7.314-7.314-7.314-21.943 0-21.943l21.943-21.943c7.314-7.314 21.943-7.314 29.257 0l21.943 14.629c7.314-7.314 21.943-7.314 36.571-7.314l7.314-21.943c0-7.314 14.629-14.629 21.943-14.629h29.257c7.314 0 14.629 7.314 14.629 21.943v21.943c14.629 7.314 21.943 7.314 36.571 14.629l14.629-14.629c7.314-7.314 21.943-7.314 29.257 7.314l21.943 21.943c7.314 7.314 7.314 21.943 0 29.257l-14.629 14.629c7.314 14.629 7.314 21.943 14.629 36.571h7.314c7.314 0 14.629 14.629 14.629 21.943v29.257c0 7.314-7.314 14.629-21.943 14.629h-21.943c-7.314 14.629-7.314 21.943-14.629 29.257l7.314 14.629c14.629 14.629 7.314 29.257 0 36.571zM724.114 352.914c-36.571 0-65.829 21.943-73.143 58.514 0 36.571 21.943 65.829 58.514 65.829s65.829-21.943 65.829-58.514c7.314-29.257-21.943-58.514-51.2-65.829zM321.829 265.143c-7.314 0-14.629-7.314-14.629-21.943v-21.943c0-7.314 7.314-21.943 14.629-21.943h14.629c0-7.314 7.314-14.629 7.314-21.943l-7.314-14.629c-7.314-7.314-7.314-21.943 0-29.257l14.629-14.629c7.314-7.314 14.629-7.314 29.257 0l14.629 7.314c7.314-7.314 14.629-7.314 29.257-14.629v-14.629c0-7.314 7.314-14.629 21.943-14.629h21.943c7.314 0 21.943 7.314 21.943 14.629v14.629c7.314 0 21.943 7.314 29.257 14.629l14.629-7.314c7.314-7.314 21.943-7.314 29.257 0l14.629 14.629c7.314 7.314 7.314 14.629 0 29.257l-7.314 14.629c7.314 7.314 7.314 14.629 14.629 29.257h14.629c7.314 0 14.629 7.314 14.629 21.943v21.943c0 7.314-7.314 21.943-14.629 21.943h-14.629c0 7.314-7.314 21.943-7.314 29.257h-14.629c7.314 7.314 7.314 21.943 0 29.257l-14.629 14.629c-7.314 7.314-14.629 7.314-29.257 0l-7.314-7.314c-7.314 7.314-21.943 7.314-29.257 14.629v14.629c0 7.314-7.314 14.629-21.943 14.629h-21.943c-7.314 0-14.629-7.314-14.629-14.629v-14.629c-7.314 0-21.943-7.314-29.257-14.629l-14.629 7.314c-7.314 7.314-21.943 7.314-29.257 0l-14.629-14.629c-7.314-7.314-7.314-14.629 0-29.257l7.314-7.314c0-7.314-7.314-14.629-7.314-29.257h-14.629zM446.171 287.086c29.257 0 51.2-21.943 51.2-51.2s-21.943-51.2-51.2-51.2c-29.257 0-51.2 21.943-51.2 51.2s29.257 51.2 51.2 51.2z" data-tags="rest-service" />
<glyph unicode="&#xe647;" d="M173.787 448c0-19.017 15.433-34.45 34.45-34.45h55.662v68.901h-55.662c-19.017 0-34.45-15.433-34.45-34.45zM173.787 560.055c0-19.017 15.433-34.45 34.45-34.45h55.662v68.901h-55.662c-19.017 0-34.45-15.433-34.45-34.45zM850.286 560.055c0 19.017-15.433 34.377-34.45 34.377h-55.662v-68.901h55.662c18.944 0.073 34.45 15.579 34.45 34.523zM365.495 144.238c0-19.017 15.433-34.45 34.45-34.45s34.45 15.433 34.45 34.45v55.662h-68.827l-0.073-55.662zM173.787 335.945c0-19.090 15.433-34.523 34.45-34.523h55.662v68.901h-55.662c-19.017 0-34.45-15.287-34.45-34.377zM477.55 144.238c0-19.017 15.433-34.45 34.45-34.45s34.45 15.433 34.45 34.45v55.662h-68.901c0 0 0-55.662 0-55.662zM658.505 751.762c0 19.017-15.433 34.45-34.523 34.45-19.017 0-34.377-15.433-34.377-34.45v-55.662h68.901v55.662zM546.523 751.762c0 19.017-15.433 34.45-34.45 34.45s-34.523-15.433-34.523-34.45v-55.662h68.974c0 0 0 55.662 0 55.662zM434.395 751.762c0 19.017-15.433 34.45-34.45 34.45s-34.377-15.433-34.377-34.45v-55.662h68.901v55.662zM815.835 370.322h-55.662v-68.901h55.662c19.017 0 34.45 15.433 34.45 34.523s-15.506 34.377-34.45 34.377zM691.127 663.040h-358.254c-19.822 0-35.913-16.091-35.913-35.913v-358.181c0-19.822 16.091-35.913 35.913-35.913h358.181c19.822 0 35.913 16.091 35.913 35.913v358.181c0.073 19.822-16.018 35.913-35.84 35.913zM447.927 380.27l-11.41 37.815h-42.423l-10.24-37.815h-34.597l45.056 147.383h43.52l45.934-147.383h-35.84zM596.041 447.854c-11.41-10.533-28.453-15.506-48.128-15.506-4.389 0-8.338 0.219-11.41 0.878v-52.955h-32.987v145.481c10.24 1.755 24.722 3.072 45.056 3.072 20.553 0 35.401-3.95 45.275-11.995 9.362-7.241 15.506-19.456 15.506-33.865 0-14.775-4.608-26.99-13.312-35.109zM664.064 380.27h-33.207v147.383h33.207c0 0 0-147.383 0-147.383zM815.835 482.45h-55.662v-68.901h55.662c19.017 0 34.45 15.433 34.45 34.45s-15.506 34.45-34.45 34.45zM550.327 503.369c-6.729 0-11.337-0.439-13.751-1.097v-43.52c2.853-0.658 6.363-0.878 11.191-0.878 17.701 0 28.672 8.923 28.672 23.845-0.073 13.605-9.289 21.65-26.112 21.65zM589.751 144.238v0c-0.073-19.017 15.36-34.45 34.377-34.45s34.45 15.433 34.45 34.45v55.662h-68.827v-55.662zM415.159 502.711h-0.658c-1.975-8.777-4.389-19.895-6.583-28.453l-8.997-31.232h32.622l-9.216 31.305c-2.414 8.704-5.047 19.895-7.168 28.379zM0.219 462.629c53.467 0 60.928 29.33 60.928 55.735 0 21.065-2.999 42.13-5.998 63.195s-5.998 41.399-5.998 62.464c0 69.266 45.129 98.597 109.129 98.597h15.799v-41.399h-13.531c-44.398 0-59.465-24.064-59.465-64.731 0-17.335 2.267-35.401 5.266-53.467 2.999-18.725 5.266-36.791 5.266-57.125 0.731-48.201-20.334-72.265-54.199-81.262v-1.463c33.865-8.338 54.93-33.938 54.199-82.139 0-20.334-2.267-39.131-5.266-57.198-2.999-18.798-5.266-36.059-5.266-54.126 0-42.13 17.335-65.463 59.465-65.463h13.531v-41.399h-15.799c-62.464 0-109.129 27.136-109.129 103.131 0 20.334 2.999 41.399 5.998 61.733s5.998 40.667 5.998 60.928c0 23.333-7.534 55.735-60.928 55.735 0-0.073 0 38.254 0 38.254zM1023.781 424.302c-53.467 0-60.928-32.402-60.928-55.735 0-20.334 2.999-40.594 5.998-60.928s5.998-41.399 5.998-61.733c0-75.995-47.397-103.131-109.129-103.131h-15.799v41.399h12.8c42.13 0.731 60.197 23.333 60.197 65.463 0 18.066-2.999 35.401-5.266 54.199-2.999 18.066-5.998 36.864-5.998 57.198 0 48.201 21.065 73.801 54.199 82.066v1.463c-33.134 8.997-54.199 33.134-54.199 81.262 0 20.334 2.999 38.4 5.998 57.198 2.267 18.066 5.266 36.133 5.266 53.467 0 40.667-15.799 64-59.465 64.731h-13.531v41.399h15.067c63.927 0 109.861-29.33 109.861-98.597 0-21.065-2.999-41.399-5.998-62.464s-5.998-42.13-5.998-63.195c0-26.331 7.534-55.735 60.928-55.735v-38.327z" data-tags="rest-api" />
</font>
</defs>
</svg>
